<mxfile host="Electron" modified="2023-08-17T07:29:55.974Z" agent="Mozilla/5.0 (Windows NT 10.0; Win64; x64) AppleWebKit/537.36 (KHTML, like Gecko) draw.io/21.6.8 Chrome/114.0.5735.289 Electron/25.5.0 Safari/537.36" etag="TQ3iHeDHbkbI_W1O3Kof" version="21.6.8" type="device">
  <diagram id="A9C176e5UnKtbQs-cTkW" name="Page-1">
    <mxGraphModel dx="1420" dy="1625" grid="1" gridSize="10" guides="1" tooltips="1" connect="1" arrows="1" fold="1" page="1" pageScale="1" pageWidth="1169" pageHeight="827" math="0" shadow="0">
      <root>
        <mxCell id="0" />
        <mxCell id="1" parent="0" />
        <mxCell id="GX7osHPojupeMqvJW22i-1" value="Pipe Service" style="swimlane;html=1;childLayout=stackLayout;resizeParent=1;resizeParentMax=0;horizontal=0;startSize=20;horizontalStack=0;" parent="1" vertex="1">
          <mxGeometry y="-587" width="1169" height="1370" as="geometry" />
        </mxCell>
        <mxCell id="GX7osHPojupeMqvJW22i-2" value="Webhook Handler" style="swimlane;html=1;startSize=20;horizontal=0;" parent="GX7osHPojupeMqvJW22i-1" vertex="1">
          <mxGeometry x="20" width="1149" height="250" as="geometry" />
        </mxCell>
        <mxCell id="GX7osHPojupeMqvJW22i-71" value="" style="points=[[0.145,0.145,0],[0.5,0,0],[0.855,0.145,0],[1,0.5,0],[0.855,0.855,0],[0.5,1,0],[0.145,0.855,0],[0,0.5,0]];shape=mxgraph.bpmn.event;html=1;verticalLabelPosition=bottom;labelBackgroundColor=#ffffff;verticalAlign=top;align=center;perimeter=ellipsePerimeter;outlineConnect=0;aspect=fixed;outline=standard;symbol=message;" parent="GX7osHPojupeMqvJW22i-2" vertex="1">
          <mxGeometry x="40" y="35" width="50" height="50" as="geometry" />
        </mxCell>
        <mxCell id="GX7osHPojupeMqvJW22i-111" value="" style="edgeStyle=orthogonalEdgeStyle;fontSize=12;html=1;endArrow=blockThin;endFill=1;rounded=0;" parent="GX7osHPojupeMqvJW22i-2" source="GX7osHPojupeMqvJW22i-119" target="GX7osHPojupeMqvJW22i-112" edge="1">
          <mxGeometry width="160" relative="1" as="geometry">
            <mxPoint x="511" y="-100" as="sourcePoint" />
            <mxPoint x="512" y="60" as="targetPoint" />
          </mxGeometry>
        </mxCell>
        <mxCell id="GX7osHPojupeMqvJW22i-112" value="Build task plan" style="points=[[0.25,0,0],[0.5,0,0],[0.75,0,0],[1,0.25,0],[1,0.5,0],[1,0.75,0],[0.75,1,0],[0.5,1,0],[0.25,1,0],[0,0.75,0],[0,0.5,0],[0,0.25,0]];shape=mxgraph.bpmn.task;whiteSpace=wrap;rectStyle=rounded;size=10;taskMarker=abstract;isLoopSub=1;fontFamily=Helvetica;fontSize=12;fontColor=default;align=center;strokeColor=default;fillColor=default;" parent="GX7osHPojupeMqvJW22i-2" vertex="1">
          <mxGeometry x="494" y="20" width="120" height="80" as="geometry" />
        </mxCell>
        <mxCell id="GX7osHPojupeMqvJW22i-114" value="" style="edgeStyle=elbowEdgeStyle;fontSize=12;html=1;endArrow=blockThin;endFill=1;rounded=0;" parent="GX7osHPojupeMqvJW22i-2" target="GX7osHPojupeMqvJW22i-115" edge="1">
          <mxGeometry width="160" relative="1" as="geometry">
            <mxPoint x="90" y="59" as="sourcePoint" />
            <mxPoint x="285" y="1006" as="targetPoint" />
          </mxGeometry>
        </mxCell>
        <mxCell id="GX7osHPojupeMqvJW22i-115" value="" style="points=[[0.25,0.25,0],[0.5,0,0],[0.75,0.25,0],[1,0.5,0],[0.75,0.75,0],[0.5,1,0],[0.25,0.75,0],[0,0.5,0]];shape=mxgraph.bpmn.gateway2;html=1;verticalLabelPosition=bottom;labelBackgroundColor=#ffffff;verticalAlign=top;align=center;perimeter=rhombusPerimeter;outlineConnect=0;outline=none;symbol=none;gwType=exclusive;" parent="GX7osHPojupeMqvJW22i-2" vertex="1">
          <mxGeometry x="115" y="34" width="50" height="50" as="geometry" />
        </mxCell>
        <mxCell id="GX7osHPojupeMqvJW22i-116" value="protected endpoint" style="edgeStyle=elbowEdgeStyle;fontSize=12;html=1;endArrow=blockThin;endFill=1;rounded=0;" parent="GX7osHPojupeMqvJW22i-2" source="GX7osHPojupeMqvJW22i-115" target="GX7osHPojupeMqvJW22i-108" edge="1">
          <mxGeometry width="160" relative="1" as="geometry">
            <mxPoint x="115" y="1006" as="sourcePoint" />
            <mxPoint x="275" y="1006" as="targetPoint" />
          </mxGeometry>
        </mxCell>
        <mxCell id="GX7osHPojupeMqvJW22i-118" value="open endpoint" style="edgeStyle=elbowEdgeStyle;fontSize=12;html=1;endArrow=blockThin;endFill=1;rounded=0;" parent="GX7osHPojupeMqvJW22i-2" source="GX7osHPojupeMqvJW22i-115" target="GX7osHPojupeMqvJW22i-117" edge="1">
          <mxGeometry width="160" relative="1" as="geometry">
            <mxPoint x="115" y="1006" as="sourcePoint" />
            <mxPoint x="275" y="1006" as="targetPoint" />
          </mxGeometry>
        </mxCell>
        <mxCell id="GX7osHPojupeMqvJW22i-119" value="" style="points=[[0.25,0.25,0],[0.5,0,0],[0.75,0.25,0],[1,0.5,0],[0.75,0.75,0],[0.5,1,0],[0.25,0.75,0],[0,0.5,0]];shape=mxgraph.bpmn.gateway2;html=1;verticalLabelPosition=bottom;labelBackgroundColor=#ffffff;verticalAlign=top;align=center;perimeter=rhombusPerimeter;outlineConnect=0;outline=none;symbol=none;gwType=exclusive;" parent="GX7osHPojupeMqvJW22i-2" vertex="1">
          <mxGeometry x="427" y="35" width="50" height="50" as="geometry" />
        </mxCell>
        <mxCell id="GX7osHPojupeMqvJW22i-120" value="" style="edgeStyle=elbowEdgeStyle;fontSize=12;html=1;endArrow=blockThin;endFill=1;rounded=0;elbow=vertical;" parent="GX7osHPojupeMqvJW22i-2" source="GX7osHPojupeMqvJW22i-117" target="GX7osHPojupeMqvJW22i-119" edge="1">
          <mxGeometry width="160" relative="1" as="geometry">
            <mxPoint x="115" y="1006" as="sourcePoint" />
            <mxPoint x="205.00000000000023" y="986" as="targetPoint" />
            <Array as="points">
              <mxPoint x="270" y="217" />
              <mxPoint x="310" y="237" />
            </Array>
          </mxGeometry>
        </mxCell>
        <mxCell id="GX7osHPojupeMqvJW22i-122" value="" style="edgeStyle=orthogonalEdgeStyle;fontSize=12;html=1;endArrow=blockThin;endFill=1;rounded=0;" parent="GX7osHPojupeMqvJW22i-2" source="GX7osHPojupeMqvJW22i-108" target="GX7osHPojupeMqvJW22i-119" edge="1">
          <mxGeometry width="160" relative="1" as="geometry">
            <mxPoint x="510" y="-100" as="sourcePoint" />
            <mxPoint x="600.0000000000002" y="-120" as="targetPoint" />
          </mxGeometry>
        </mxCell>
        <mxCell id="GX7osHPojupeMqvJW22i-123" value="" style="shape=datastore;whiteSpace=wrap;html=1;labelPosition=center;verticalLabelPosition=bottom;align=center;verticalAlign=top;aspect=fixed;" parent="GX7osHPojupeMqvJW22i-2" vertex="1">
          <mxGeometry x="574" y="119" width="40" height="40" as="geometry" />
        </mxCell>
        <mxCell id="GX7osHPojupeMqvJW22i-124" value="" style="fontSize=12;html=1;endFill=0;startFill=0;endSize=6;startSize=6;dashed=1;dashPattern=1 4;endArrow=openThin;startArrow=none;rounded=0;elbow=vertical;" parent="GX7osHPojupeMqvJW22i-2" source="GX7osHPojupeMqvJW22i-123" target="GX7osHPojupeMqvJW22i-112" edge="1">
          <mxGeometry width="160" relative="1" as="geometry">
            <mxPoint x="322" y="17" as="sourcePoint" />
            <mxPoint x="482" y="17" as="targetPoint" />
          </mxGeometry>
        </mxCell>
        <mxCell id="GX7osHPojupeMqvJW22i-125" value="" style="shape=datastore;whiteSpace=wrap;html=1;labelPosition=center;verticalLabelPosition=bottom;align=center;verticalAlign=top;aspect=fixed;" parent="GX7osHPojupeMqvJW22i-2" vertex="1">
          <mxGeometry x="220" y="84" width="40" height="40" as="geometry" />
        </mxCell>
        <mxCell id="GX7osHPojupeMqvJW22i-126" value="" style="fontSize=12;html=1;endFill=0;startFill=0;endSize=6;startSize=6;dashed=1;dashPattern=1 4;endArrow=openThin;startArrow=none;rounded=0;" parent="GX7osHPojupeMqvJW22i-2" source="GX7osHPojupeMqvJW22i-125" target="GX7osHPojupeMqvJW22i-117" edge="1">
          <mxGeometry width="160" relative="1" as="geometry">
            <mxPoint x="340" y="137" as="sourcePoint" />
            <mxPoint x="650" y="17" as="targetPoint" />
          </mxGeometry>
        </mxCell>
        <mxCell id="GX7osHPojupeMqvJW22i-132" value="Queue task plan" style="points=[[0.25,0,0],[0.5,0,0],[0.75,0,0],[1,0.25,0],[1,0.5,0],[1,0.75,0],[0.75,1,0],[0.5,1,0],[0.25,1,0],[0,0.75,0],[0,0.5,0],[0,0.25,0]];shape=mxgraph.bpmn.task;whiteSpace=wrap;rectStyle=rounded;size=10;taskMarker=abstract;" parent="GX7osHPojupeMqvJW22i-2" vertex="1">
          <mxGeometry x="632" y="154" width="120" height="80" as="geometry" />
        </mxCell>
        <mxCell id="GX7osHPojupeMqvJW22i-133" value="Node Handler" style="points=[[0.145,0.145,0],[0.5,0,0],[0.855,0.145,0],[1,0.5,0],[0.855,0.855,0],[0.5,1,0],[0.145,0.855,0],[0,0.5,0]];shape=mxgraph.bpmn.event;html=1;verticalLabelPosition=bottom;labelBackgroundColor=#ffffff;verticalAlign=top;align=center;perimeter=ellipsePerimeter;outlineConnect=0;aspect=fixed;outline=throwing;symbol=message;fontFamily=Helvetica;fontSize=12;fontColor=default;strokeColor=default;fillColor=default;" parent="GX7osHPojupeMqvJW22i-2" vertex="1">
          <mxGeometry x="780" y="169" width="50" height="50" as="geometry" />
        </mxCell>
        <mxCell id="GX7osHPojupeMqvJW22i-134" value="" style="edgeStyle=orthogonalEdgeStyle;fontSize=12;html=1;endArrow=blockThin;endFill=1;rounded=0;" parent="GX7osHPojupeMqvJW22i-2" source="GX7osHPojupeMqvJW22i-112" target="GX7osHPojupeMqvJW22i-160" edge="1">
          <mxGeometry width="160" relative="1" as="geometry">
            <mxPoint x="613" y="60" as="sourcePoint" />
            <mxPoint x="613.0000000000002" y="417" as="targetPoint" />
          </mxGeometry>
        </mxCell>
        <mxCell id="GX7osHPojupeMqvJW22i-135" value="" style="edgeStyle=orthogonalEdgeStyle;fontSize=12;html=1;endArrow=blockThin;endFill=1;rounded=0;" parent="GX7osHPojupeMqvJW22i-2" source="GX7osHPojupeMqvJW22i-132" target="GX7osHPojupeMqvJW22i-133" edge="1">
          <mxGeometry width="160" relative="1" as="geometry">
            <mxPoint x="553" y="60" as="sourcePoint" />
            <mxPoint x="553.0000000000002" y="417" as="targetPoint" />
          </mxGeometry>
        </mxCell>
        <mxCell id="GX7osHPojupeMqvJW22i-136" value="Publish task" style="points=[[0.25,0,0],[0.5,0,0],[0.75,0,0],[1,0.25,0],[1,0.5,0],[1,0.75,0],[0.75,1,0],[0.5,1,0],[0.25,1,0],[0,0.75,0],[0,0.5,0],[0,0.25,0]];shape=mxgraph.bpmn.task;whiteSpace=wrap;rectStyle=rounded;size=10;taskMarker=abstract;" parent="GX7osHPojupeMqvJW22i-2" vertex="1">
          <mxGeometry x="860" y="154" width="120" height="80" as="geometry" />
        </mxCell>
        <mxCell id="GX7osHPojupeMqvJW22i-137" value="" style="edgeStyle=orthogonalEdgeStyle;fontSize=12;html=1;endArrow=blockThin;endFill=1;rounded=0;" parent="GX7osHPojupeMqvJW22i-2" source="GX7osHPojupeMqvJW22i-136" target="GX7osHPojupeMqvJW22i-138" edge="1">
          <mxGeometry width="160" relative="1" as="geometry">
            <mxPoint x="1092" y="597" as="sourcePoint" />
            <mxPoint x="1092.0000000000002" y="954" as="targetPoint" />
          </mxGeometry>
        </mxCell>
        <mxCell id="GX7osHPojupeMqvJW22i-138" value="Task" style="points=[[0.145,0.145,0],[0.5,0,0],[0.855,0.145,0],[1,0.5,0],[0.855,0.855,0],[0.5,1,0],[0.145,0.855,0],[0,0.5,0]];shape=mxgraph.bpmn.event;html=1;verticalLabelPosition=bottom;labelBackgroundColor=#ffffff;verticalAlign=top;align=center;perimeter=ellipsePerimeter;outlineConnect=0;aspect=fixed;outline=throwing;symbol=signal;fontFamily=Helvetica;fontSize=12;fontColor=default;strokeColor=default;fillColor=default;" parent="GX7osHPojupeMqvJW22i-2" vertex="1">
          <mxGeometry x="1010" y="169" width="50" height="50" as="geometry" />
        </mxCell>
        <mxCell id="GX7osHPojupeMqvJW22i-139" value="Task" style="shape=mxgraph.bpmn.data;labelPosition=center;verticalLabelPosition=bottom;align=center;verticalAlign=top;whiteSpace=wrap;size=15;html=1;fontFamily=Helvetica;fontSize=12;fontColor=default;strokeColor=default;fillColor=default;" parent="GX7osHPojupeMqvJW22i-2" vertex="1">
          <mxGeometry x="799.9999999999999" y="85" width="30" height="40" as="geometry" />
        </mxCell>
        <mxCell id="GX7osHPojupeMqvJW22i-140" value="" style="fontSize=12;html=1;endFill=0;startFill=0;endSize=6;startSize=6;dashed=1;dashPattern=1 4;endArrow=openThin;startArrow=none;rounded=0;" parent="GX7osHPojupeMqvJW22i-2" source="GX7osHPojupeMqvJW22i-139" target="GX7osHPojupeMqvJW22i-136" edge="1">
          <mxGeometry width="160" relative="1" as="geometry">
            <mxPoint x="1022.3299999999999" y="-9.527668805095232" as="sourcePoint" />
            <mxPoint x="1161" y="554" as="targetPoint" />
          </mxGeometry>
        </mxCell>
        <mxCell id="GX7osHPojupeMqvJW22i-141" value="" style="edgeStyle=orthogonalEdgeStyle;fontSize=12;html=1;endArrow=blockThin;endFill=1;rounded=0;" parent="GX7osHPojupeMqvJW22i-2" source="GX7osHPojupeMqvJW22i-133" target="GX7osHPojupeMqvJW22i-136" edge="1">
          <mxGeometry width="160" relative="1" as="geometry">
            <mxPoint x="553" y="60" as="sourcePoint" />
            <mxPoint x="553.0000000000002" y="417" as="targetPoint" />
          </mxGeometry>
        </mxCell>
        <mxCell id="GX7osHPojupeMqvJW22i-153" value="" style="points=[[0.145,0.145,0],[0.5,0,0],[0.855,0.145,0],[1,0.5,0],[0.855,0.855,0],[0.5,1,0],[0.145,0.855,0],[0,0.5,0]];shape=mxgraph.bpmn.event;html=1;verticalLabelPosition=bottom;labelBackgroundColor=#ffffff;verticalAlign=top;align=center;perimeter=ellipsePerimeter;outlineConnect=0;aspect=fixed;outline=end;symbol=error;fontFamily=Helvetica;fontSize=12;fontColor=default;strokeColor=default;fillColor=default;" parent="GX7osHPojupeMqvJW22i-2" vertex="1">
          <mxGeometry x="358" y="154" width="50" height="50" as="geometry" />
        </mxCell>
        <mxCell id="GX7osHPojupeMqvJW22i-155" value="" style="edgeStyle=orthogonalEdgeStyle;fontSize=12;html=1;endArrow=blockThin;endFill=1;rounded=0;elbow=vertical;" parent="GX7osHPojupeMqvJW22i-2" source="GX7osHPojupeMqvJW22i-150" target="GX7osHPojupeMqvJW22i-153" edge="1">
          <mxGeometry width="160" relative="1" as="geometry">
            <mxPoint x="230" y="217" as="sourcePoint" />
            <mxPoint x="255" y="177" as="targetPoint" />
          </mxGeometry>
        </mxCell>
        <mxCell id="GX7osHPojupeMqvJW22i-156" value="" style="edgeStyle=elbowEdgeStyle;fontSize=12;html=1;endArrow=blockThin;endFill=1;rounded=0;" parent="GX7osHPojupeMqvJW22i-2" source="GX7osHPojupeMqvJW22i-151" target="GX7osHPojupeMqvJW22i-153" edge="1">
          <mxGeometry width="160" relative="1" as="geometry">
            <mxPoint x="220" y="217" as="sourcePoint" />
            <mxPoint x="305" y="137" as="targetPoint" />
            <Array as="points">
              <mxPoint x="383" y="162" />
            </Array>
          </mxGeometry>
        </mxCell>
        <mxCell id="GX7osHPojupeMqvJW22i-158" value="TaskPlan" style="shape=mxgraph.bpmn.data;labelPosition=center;verticalLabelPosition=bottom;align=center;verticalAlign=top;whiteSpace=wrap;size=15;html=1;fontFamily=Helvetica;fontSize=12;fontColor=default;strokeColor=default;fillColor=default;" parent="GX7osHPojupeMqvJW22i-2" vertex="1">
          <mxGeometry x="539" y="174" width="30" height="40" as="geometry" />
        </mxCell>
        <mxCell id="GX7osHPojupeMqvJW22i-159" value="" style="fontSize=12;html=1;endFill=0;startFill=0;endSize=6;startSize=6;dashed=1;dashPattern=1 4;endArrow=openThin;startArrow=none;rounded=0;" parent="GX7osHPojupeMqvJW22i-2" source="GX7osHPojupeMqvJW22i-112" target="GX7osHPojupeMqvJW22i-158" edge="1">
          <mxGeometry width="160" relative="1" as="geometry">
            <mxPoint x="791" y="674" as="sourcePoint" />
            <mxPoint x="1101" y="554" as="targetPoint" />
          </mxGeometry>
        </mxCell>
        <mxCell id="GX7osHPojupeMqvJW22i-160" value="Create task" style="points=[[0.25,0,0],[0.5,0,0],[0.75,0,0],[1,0.25,0],[1,0.5,0],[1,0.75,0],[0.75,1,0],[0.5,1,0],[0.25,1,0],[0,0.75,0],[0,0.5,0],[0,0.25,0]];shape=mxgraph.bpmn.task;whiteSpace=wrap;rectStyle=rounded;size=10;taskMarker=abstract;" parent="GX7osHPojupeMqvJW22i-2" vertex="1">
          <mxGeometry x="632" y="20" width="120" height="80" as="geometry" />
        </mxCell>
        <mxCell id="GX7osHPojupeMqvJW22i-161" value="" style="edgeStyle=orthogonalEdgeStyle;fontSize=12;html=1;endArrow=blockThin;endFill=1;rounded=0;" parent="GX7osHPojupeMqvJW22i-2" source="GX7osHPojupeMqvJW22i-160" target="GX7osHPojupeMqvJW22i-132" edge="1">
          <mxGeometry width="160" relative="1" as="geometry">
            <mxPoint x="613" y="60" as="sourcePoint" />
            <mxPoint x="613.0000000000002" y="417" as="targetPoint" />
          </mxGeometry>
        </mxCell>
        <mxCell id="GX7osHPojupeMqvJW22i-164" value="" style="fontSize=12;html=1;endFill=0;startFill=0;endSize=6;startSize=6;dashed=1;dashPattern=1 4;endArrow=openThin;startArrow=none;rounded=0;elbow=vertical;" parent="GX7osHPojupeMqvJW22i-2" source="GX7osHPojupeMqvJW22i-160" target="GX7osHPojupeMqvJW22i-123" edge="1">
          <mxGeometry width="160" relative="1" as="geometry">
            <mxPoint x="322" y="17" as="sourcePoint" />
            <mxPoint x="672" y="167" as="targetPoint" />
          </mxGeometry>
        </mxCell>
        <mxCell id="GX7osHPojupeMqvJW22i-165" value="" style="fontSize=12;html=1;endFill=0;startFill=0;endSize=6;startSize=6;dashed=1;dashPattern=1 4;endArrow=openThin;startArrow=none;rounded=0;" parent="GX7osHPojupeMqvJW22i-2" source="GX7osHPojupeMqvJW22i-160" target="GX7osHPojupeMqvJW22i-139" edge="1">
          <mxGeometry width="160" relative="1" as="geometry">
            <mxPoint x="851" y="674" as="sourcePoint" />
            <mxPoint x="1161" y="554" as="targetPoint" />
          </mxGeometry>
        </mxCell>
        <mxCell id="GX7osHPojupeMqvJW22i-221" value="" style="fontSize=12;html=1;endFill=0;startFill=0;endSize=6;startSize=6;dashed=1;dashPattern=1 4;endArrow=openThin;startArrow=none;rounded=0;" parent="GX7osHPojupeMqvJW22i-2" source="GX7osHPojupeMqvJW22i-158" target="GX7osHPojupeMqvJW22i-132" edge="1">
          <mxGeometry width="160" relative="1" as="geometry">
            <mxPoint x="791" y="674" as="sourcePoint" />
            <mxPoint x="1101" y="554" as="targetPoint" />
          </mxGeometry>
        </mxCell>
        <mxCell id="JMrL7uiw3fRfpIFlFQm5-44" value="" style="group" parent="GX7osHPojupeMqvJW22i-2" vertex="1" connectable="0">
          <mxGeometry x="290" y="20" width="120" height="90" as="geometry" />
        </mxCell>
        <mxCell id="GX7osHPojupeMqvJW22i-108" value="Verify permissions" style="points=[[0.25,0,0],[0.5,0,0],[0.75,0,0],[1,0.25,0],[1,0.5,0],[1,0.75,0],[0.75,1,0],[0.5,1,0],[0.25,1,0],[0,0.75,0],[0,0.5,0],[0,0.25,0]];shape=mxgraph.bpmn.task;whiteSpace=wrap;rectStyle=rounded;size=10;taskMarker=abstract;" parent="JMrL7uiw3fRfpIFlFQm5-44" vertex="1">
          <mxGeometry width="120" height="80" as="geometry" />
        </mxCell>
        <mxCell id="GX7osHPojupeMqvJW22i-151" value="" style="points=[[0.145,0.145,0],[0.5,0,0],[0.855,0.145,0],[1,0.5,0],[0.855,0.855,0],[0.5,1,0],[0.145,0.855,0],[0,0.5,0]];shape=mxgraph.bpmn.event;html=1;verticalLabelPosition=bottom;labelBackgroundColor=#ffffff;verticalAlign=top;align=center;perimeter=ellipsePerimeter;outlineConnect=0;aspect=fixed;outline=boundInt;symbol=error;" parent="JMrL7uiw3fRfpIFlFQm5-44" vertex="1">
          <mxGeometry x="83" y="70" width="20" height="20" as="geometry" />
        </mxCell>
        <mxCell id="JMrL7uiw3fRfpIFlFQm5-46" value="" style="group" parent="GX7osHPojupeMqvJW22i-2" vertex="1" connectable="0">
          <mxGeometry x="80" y="119" width="129" height="80" as="geometry" />
        </mxCell>
        <mxCell id="GX7osHPojupeMqvJW22i-117" value="Verify AWS API key" style="points=[[0.25,0,0],[0.5,0,0],[0.75,0,0],[1,0.25,0],[1,0.5,0],[1,0.75,0],[0.75,1,0],[0.5,1,0],[0.25,1,0],[0,0.75,0],[0,0.5,0],[0,0.25,0]];shape=mxgraph.bpmn.task;whiteSpace=wrap;rectStyle=rounded;size=10;taskMarker=abstract;" parent="JMrL7uiw3fRfpIFlFQm5-46" vertex="1">
          <mxGeometry width="120" height="80" as="geometry" />
        </mxCell>
        <mxCell id="GX7osHPojupeMqvJW22i-150" value="" style="points=[[0.145,0.145,0],[0.5,0,0],[0.855,0.145,0],[1,0.5,0],[0.855,0.855,0],[0.5,1,0],[0.145,0.855,0],[0,0.5,0]];shape=mxgraph.bpmn.event;html=1;verticalLabelPosition=bottom;labelBackgroundColor=#ffffff;verticalAlign=top;align=center;perimeter=ellipsePerimeter;outlineConnect=0;aspect=fixed;outline=boundInt;symbol=error;" parent="JMrL7uiw3fRfpIFlFQm5-46" vertex="1">
          <mxGeometry x="109" y="50" width="20" height="20" as="geometry" />
        </mxCell>
        <mxCell id="GX7osHPojupeMqvJW22i-142" value="" style="points=[[0.145,0.145,0],[0.5,0,0],[0.855,0.145,0],[1,0.5,0],[0.855,0.855,0],[0.5,1,0],[0.145,0.855,0],[0,0.5,0]];shape=mxgraph.bpmn.event;html=1;verticalLabelPosition=bottom;labelBackgroundColor=#ffffff;verticalAlign=top;align=center;perimeter=ellipsePerimeter;outlineConnect=0;aspect=fixed;outline=end;symbol=terminate2;" parent="GX7osHPojupeMqvJW22i-2" vertex="1">
          <mxGeometry x="1080" y="169" width="50" height="50" as="geometry" />
        </mxCell>
        <mxCell id="GX7osHPojupeMqvJW22i-143" value="" style="edgeStyle=orthogonalEdgeStyle;fontSize=12;html=1;endArrow=blockThin;endFill=1;rounded=0;" parent="GX7osHPojupeMqvJW22i-2" source="GX7osHPojupeMqvJW22i-138" target="GX7osHPojupeMqvJW22i-142" edge="1">
          <mxGeometry width="160" relative="1" as="geometry">
            <mxPoint x="1077" y="597" as="sourcePoint" />
            <mxPoint x="1077.0000000000002" y="954" as="targetPoint" />
          </mxGeometry>
        </mxCell>
        <mxCell id="GX7osHPojupeMqvJW22i-3" value="Event Trigger" style="swimlane;html=1;startSize=20;horizontal=0;" parent="GX7osHPojupeMqvJW22i-1" vertex="1">
          <mxGeometry x="20" y="250" width="1149" height="230" as="geometry" />
        </mxCell>
        <mxCell id="GX7osHPojupeMqvJW22i-6" value="*" style="points=[[0.145,0.145,0],[0.5,0,0],[0.855,0.145,0],[1,0.5,0],[0.855,0.855,0],[0.5,1,0],[0.145,0.855,0],[0,0.5,0]];shape=mxgraph.bpmn.event;html=1;verticalLabelPosition=bottom;labelBackgroundColor=#ffffff;verticalAlign=top;align=center;perimeter=ellipsePerimeter;outlineConnect=0;aspect=fixed;outline=standard;symbol=signal;" parent="GX7osHPojupeMqvJW22i-3" vertex="1">
          <mxGeometry x="40" y="35" width="50" height="50" as="geometry" />
        </mxCell>
        <mxCell id="GX7osHPojupeMqvJW22i-188" value="" style="points=[[0.25,0.25,0],[0.5,0,0],[0.75,0.25,0],[1,0.5,0],[0.75,0.75,0],[0.5,1,0],[0.25,0.75,0],[0,0.5,0]];shape=mxgraph.bpmn.gateway2;html=1;verticalLabelPosition=bottom;labelBackgroundColor=#ffffff;verticalAlign=top;align=center;perimeter=rhombusPerimeter;outlineConnect=0;outline=none;symbol=none;gwType=exclusive;" parent="GX7osHPojupeMqvJW22i-3" vertex="1">
          <mxGeometry x="255" y="35" width="50" height="50" as="geometry" />
        </mxCell>
        <mxCell id="GX7osHPojupeMqvJW22i-189" value="" style="edgeStyle=elbowEdgeStyle;fontSize=12;html=1;endArrow=blockThin;endFill=1;rounded=0;" parent="GX7osHPojupeMqvJW22i-3" source="GX7osHPojupeMqvJW22i-6" target="GX7osHPojupeMqvJW22i-192" edge="1">
          <mxGeometry width="160" relative="1" as="geometry">
            <mxPoint x="90" y="-201" as="sourcePoint" />
            <mxPoint x="285" y="746" as="targetPoint" />
          </mxGeometry>
        </mxCell>
        <mxCell id="GX7osHPojupeMqvJW22i-190" value="" style="points=[[0.145,0.145,0],[0.5,0,0],[0.855,0.145,0],[1,0.5,0],[0.855,0.855,0],[0.5,1,0],[0.145,0.855,0],[0,0.5,0]];shape=mxgraph.bpmn.event;html=1;verticalLabelPosition=bottom;labelBackgroundColor=#ffffff;verticalAlign=top;align=center;perimeter=ellipsePerimeter;outlineConnect=0;aspect=fixed;outline=end;symbol=terminate2;" parent="GX7osHPojupeMqvJW22i-3" vertex="1">
          <mxGeometry x="255" y="148" width="50" height="50" as="geometry" />
        </mxCell>
        <mxCell id="GX7osHPojupeMqvJW22i-191" value="none" style="edgeStyle=elbowEdgeStyle;fontSize=12;html=1;endArrow=blockThin;endFill=1;rounded=0;" parent="GX7osHPojupeMqvJW22i-3" source="GX7osHPojupeMqvJW22i-188" target="GX7osHPojupeMqvJW22i-190" edge="1">
          <mxGeometry width="160" relative="1" as="geometry">
            <mxPoint x="230" y="-181" as="sourcePoint" />
            <mxPoint x="425" y="766" as="targetPoint" />
          </mxGeometry>
        </mxCell>
        <mxCell id="GX7osHPojupeMqvJW22i-192" value="Find event subscribers" style="points=[[0.25,0,0],[0.5,0,0],[0.75,0,0],[1,0.25,0],[1,0.5,0],[1,0.75,0],[0.75,1,0],[0.5,1,0],[0.25,1,0],[0,0.75,0],[0,0.5,0],[0,0.25,0]];shape=mxgraph.bpmn.task;whiteSpace=wrap;rectStyle=rounded;size=10;taskMarker=abstract;" parent="GX7osHPojupeMqvJW22i-3" vertex="1">
          <mxGeometry x="115" y="20" width="120" height="80" as="geometry" />
        </mxCell>
        <mxCell id="GX7osHPojupeMqvJW22i-193" value="" style="edgeStyle=elbowEdgeStyle;fontSize=12;html=1;endArrow=blockThin;endFill=1;rounded=0;" parent="GX7osHPojupeMqvJW22i-3" source="GX7osHPojupeMqvJW22i-192" target="GX7osHPojupeMqvJW22i-188" edge="1">
          <mxGeometry width="160" relative="1" as="geometry">
            <mxPoint x="90" y="-201" as="sourcePoint" />
            <mxPoint x="285" y="746" as="targetPoint" />
          </mxGeometry>
        </mxCell>
        <mxCell id="GX7osHPojupeMqvJW22i-194" value="" style="shape=datastore;whiteSpace=wrap;html=1;labelPosition=center;verticalLabelPosition=bottom;align=center;verticalAlign=top;aspect=fixed;" parent="GX7osHPojupeMqvJW22i-3" vertex="1">
          <mxGeometry x="180" y="127" width="40" height="40" as="geometry" />
        </mxCell>
        <mxCell id="GX7osHPojupeMqvJW22i-195" value="" style="fontSize=12;html=1;endFill=0;startFill=0;endSize=6;startSize=6;dashed=1;dashPattern=1 4;endArrow=openThin;startArrow=none;rounded=0;elbow=vertical;" parent="GX7osHPojupeMqvJW22i-3" source="GX7osHPojupeMqvJW22i-194" target="GX7osHPojupeMqvJW22i-192" edge="1">
          <mxGeometry width="160" relative="1" as="geometry">
            <mxPoint x="-221.89" y="838" as="sourcePoint" />
            <mxPoint x="80.00010989010991" y="107" as="targetPoint" />
          </mxGeometry>
        </mxCell>
        <mxCell id="GX7osHPojupeMqvJW22i-197" value="" style="edgeStyle=elbowEdgeStyle;fontSize=12;html=1;endArrow=blockThin;endFill=1;rounded=0;" parent="GX7osHPojupeMqvJW22i-3" source="GX7osHPojupeMqvJW22i-188" target="rsyZAAjRXxu-Z-ed2r9X-1" edge="1">
          <mxGeometry width="160" relative="1" as="geometry">
            <mxPoint x="90" y="-181" as="sourcePoint" />
            <mxPoint x="325" y="60" as="targetPoint" />
            <Array as="points">
              <mxPoint x="340" y="77" />
            </Array>
          </mxGeometry>
        </mxCell>
        <mxCell id="GX7osHPojupeMqvJW22i-201" value="" style="points=[[0.145,0.145,0],[0.5,0,0],[0.855,0.145,0],[1,0.5,0],[0.855,0.855,0],[0.5,1,0],[0.145,0.855,0],[0,0.5,0]];shape=mxgraph.bpmn.event;html=1;verticalLabelPosition=bottom;labelBackgroundColor=#ffffff;verticalAlign=top;align=center;perimeter=ellipsePerimeter;outlineConnect=0;aspect=fixed;outline=end;symbol=terminate2;" parent="GX7osHPojupeMqvJW22i-3" vertex="1">
          <mxGeometry x="564.5" y="35" width="50" height="50" as="geometry" />
        </mxCell>
        <mxCell id="GX7osHPojupeMqvJW22i-202" value="" style="edgeStyle=elbowEdgeStyle;fontSize=12;html=1;endArrow=blockThin;endFill=1;rounded=0;elbow=vertical;" parent="GX7osHPojupeMqvJW22i-3" source="rsyZAAjRXxu-Z-ed2r9X-2" target="GX7osHPojupeMqvJW22i-201" edge="1">
          <mxGeometry width="160" relative="1" as="geometry">
            <mxPoint x="695" y="125" as="sourcePoint" />
            <mxPoint x="730" y="125" as="targetPoint" />
          </mxGeometry>
        </mxCell>
        <mxCell id="rsyZAAjRXxu-Z-ed2r9X-1" value="Queue task" style="points=[[0.25,0,0],[0.5,0,0],[0.75,0,0],[1,0.25,0],[1,0.5,0],[1,0.75,0],[0.75,1,0],[0.5,1,0],[0.25,1,0],[0,0.75,0],[0,0.5,0],[0,0.25,0]];shape=mxgraph.bpmn.task;whiteSpace=wrap;rectStyle=rounded;size=10;taskMarker=abstract;" vertex="1" parent="GX7osHPojupeMqvJW22i-3">
          <mxGeometry x="330" y="20" width="120" height="80" as="geometry" />
        </mxCell>
        <mxCell id="rsyZAAjRXxu-Z-ed2r9X-2" value="Event Handler" style="points=[[0.145,0.145,0],[0.5,0,0],[0.855,0.145,0],[1,0.5,0],[0.855,0.855,0],[0.5,1,0],[0.145,0.855,0],[0,0.5,0]];shape=mxgraph.bpmn.event;html=1;verticalLabelPosition=bottom;labelBackgroundColor=#ffffff;verticalAlign=top;align=center;perimeter=ellipsePerimeter;outlineConnect=0;aspect=fixed;outline=throwing;symbol=message;fontFamily=Helvetica;fontSize=12;fontColor=default;strokeColor=default;fillColor=default;" vertex="1" parent="GX7osHPojupeMqvJW22i-3">
          <mxGeometry x="480" y="35" width="50" height="50" as="geometry" />
        </mxCell>
        <mxCell id="rsyZAAjRXxu-Z-ed2r9X-3" value="" style="edgeStyle=orthogonalEdgeStyle;fontSize=12;html=1;endArrow=blockThin;endFill=1;rounded=0;" edge="1" parent="GX7osHPojupeMqvJW22i-3" source="rsyZAAjRXxu-Z-ed2r9X-1" target="rsyZAAjRXxu-Z-ed2r9X-2">
          <mxGeometry width="160" relative="1" as="geometry">
            <mxPoint x="193.5" y="454" as="sourcePoint" />
            <mxPoint x="193.50000000000023" y="811" as="targetPoint" />
          </mxGeometry>
        </mxCell>
        <mxCell id="rsyZAAjRXxu-Z-ed2r9X-4" value="EventTask" style="shape=mxgraph.bpmn.data;labelPosition=center;verticalLabelPosition=bottom;align=center;verticalAlign=top;whiteSpace=wrap;size=15;html=1;bpmnTransferType=output;" vertex="1" parent="GX7osHPojupeMqvJW22i-3">
          <mxGeometry x="374.99999999999994" y="127" width="30" height="40" as="geometry" />
        </mxCell>
        <mxCell id="rsyZAAjRXxu-Z-ed2r9X-5" value="" style="fontSize=12;html=1;endFill=0;startFill=0;endSize=6;startSize=6;dashed=1;dashPattern=1 4;endArrow=openThin;startArrow=none;rounded=0;" edge="1" parent="GX7osHPojupeMqvJW22i-3" source="rsyZAAjRXxu-Z-ed2r9X-1" target="rsyZAAjRXxu-Z-ed2r9X-4">
          <mxGeometry width="160" relative="1" as="geometry">
            <mxPoint x="431.5" y="1068" as="sourcePoint" />
            <mxPoint x="741.5" y="948" as="targetPoint" />
          </mxGeometry>
        </mxCell>
        <mxCell id="GX7osHPojupeMqvJW22i-4" value="Event handler" style="swimlane;html=1;startSize=20;horizontal=0;" parent="GX7osHPojupeMqvJW22i-1" vertex="1">
          <mxGeometry x="20" y="480" width="1149" height="220" as="geometry" />
        </mxCell>
        <mxCell id="GX7osHPojupeMqvJW22i-167" value="Build task plan" style="points=[[0.25,0,0],[0.5,0,0],[0.75,0,0],[1,0.25,0],[1,0.5,0],[1,0.75,0],[0.75,1,0],[0.5,1,0],[0.25,1,0],[0,0.75,0],[0,0.5,0],[0,0.25,0]];shape=mxgraph.bpmn.task;whiteSpace=wrap;rectStyle=rounded;size=10;taskMarker=abstract;isLoopSub=1;fontFamily=Helvetica;fontSize=12;fontColor=default;align=center;strokeColor=default;fillColor=default;" parent="GX7osHPojupeMqvJW22i-4" vertex="1">
          <mxGeometry x="110" y="22.5" width="120" height="80" as="geometry" />
        </mxCell>
        <mxCell id="GX7osHPojupeMqvJW22i-168" value="" style="shape=datastore;whiteSpace=wrap;html=1;labelPosition=center;verticalLabelPosition=bottom;align=center;verticalAlign=top;aspect=fixed;" parent="GX7osHPojupeMqvJW22i-4" vertex="1">
          <mxGeometry x="208" y="123.5" width="40" height="40" as="geometry" />
        </mxCell>
        <mxCell id="GX7osHPojupeMqvJW22i-169" value="" style="fontSize=12;html=1;endFill=0;startFill=0;endSize=6;startSize=6;dashed=1;dashPattern=1 4;endArrow=openThin;startArrow=none;rounded=0;elbow=vertical;" parent="GX7osHPojupeMqvJW22i-4" source="GX7osHPojupeMqvJW22i-168" target="GX7osHPojupeMqvJW22i-167" edge="1">
          <mxGeometry width="160" relative="1" as="geometry">
            <mxPoint x="-82" y="556.5" as="sourcePoint" />
            <mxPoint x="78" y="556.5" as="targetPoint" />
          </mxGeometry>
        </mxCell>
        <mxCell id="GX7osHPojupeMqvJW22i-170" value="Queue task plan" style="points=[[0.25,0,0],[0.5,0,0],[0.75,0,0],[1,0.25,0],[1,0.5,0],[1,0.75,0],[0.75,1,0],[0.5,1,0],[0.25,1,0],[0,0.75,0],[0,0.5,0],[0,0.25,0]];shape=mxgraph.bpmn.task;whiteSpace=wrap;rectStyle=rounded;size=10;taskMarker=abstract;" parent="GX7osHPojupeMqvJW22i-4" vertex="1">
          <mxGeometry x="386" y="22.5" width="120" height="80" as="geometry" />
        </mxCell>
        <mxCell id="GX7osHPojupeMqvJW22i-171" value="Node Handler" style="points=[[0.145,0.145,0],[0.5,0,0],[0.855,0.145,0],[1,0.5,0],[0.855,0.855,0],[0.5,1,0],[0.145,0.855,0],[0,0.5,0]];shape=mxgraph.bpmn.event;html=1;verticalLabelPosition=bottom;labelBackgroundColor=#ffffff;verticalAlign=top;align=center;perimeter=ellipsePerimeter;outlineConnect=0;aspect=fixed;outline=throwing;symbol=message;fontFamily=Helvetica;fontSize=12;fontColor=default;strokeColor=default;fillColor=default;" parent="GX7osHPojupeMqvJW22i-4" vertex="1">
          <mxGeometry x="524" y="37.5" width="50" height="50" as="geometry" />
        </mxCell>
        <mxCell id="GX7osHPojupeMqvJW22i-172" value="" style="edgeStyle=orthogonalEdgeStyle;fontSize=12;html=1;endArrow=blockThin;endFill=1;rounded=0;" parent="GX7osHPojupeMqvJW22i-4" source="GX7osHPojupeMqvJW22i-167" target="GX7osHPojupeMqvJW22i-184" edge="1">
          <mxGeometry width="160" relative="1" as="geometry">
            <mxPoint x="209" y="599.5" as="sourcePoint" />
            <mxPoint x="209.00000000000023" y="956.5" as="targetPoint" />
          </mxGeometry>
        </mxCell>
        <mxCell id="GX7osHPojupeMqvJW22i-173" value="" style="edgeStyle=orthogonalEdgeStyle;fontSize=12;html=1;endArrow=blockThin;endFill=1;rounded=0;" parent="GX7osHPojupeMqvJW22i-4" source="GX7osHPojupeMqvJW22i-170" target="GX7osHPojupeMqvJW22i-171" edge="1">
          <mxGeometry width="160" relative="1" as="geometry">
            <mxPoint x="149" y="599.5" as="sourcePoint" />
            <mxPoint x="149.00000000000023" y="956.5" as="targetPoint" />
          </mxGeometry>
        </mxCell>
        <mxCell id="GX7osHPojupeMqvJW22i-174" value="Publish task" style="points=[[0.25,0,0],[0.5,0,0],[0.75,0,0],[1,0.25,0],[1,0.5,0],[1,0.75,0],[0.75,1,0],[0.5,1,0],[0.25,1,0],[0,0.75,0],[0,0.5,0],[0,0.25,0]];shape=mxgraph.bpmn.task;whiteSpace=wrap;rectStyle=rounded;size=10;taskMarker=abstract;" parent="GX7osHPojupeMqvJW22i-4" vertex="1">
          <mxGeometry x="593" y="22.5" width="120" height="80" as="geometry" />
        </mxCell>
        <mxCell id="GX7osHPojupeMqvJW22i-175" value="" style="edgeStyle=orthogonalEdgeStyle;fontSize=12;html=1;endArrow=blockThin;endFill=1;rounded=0;" parent="GX7osHPojupeMqvJW22i-4" source="GX7osHPojupeMqvJW22i-174" target="GX7osHPojupeMqvJW22i-176" edge="1">
          <mxGeometry width="160" relative="1" as="geometry">
            <mxPoint x="688" y="1136.5" as="sourcePoint" />
            <mxPoint x="688.0000000000002" y="1493.5" as="targetPoint" />
          </mxGeometry>
        </mxCell>
        <mxCell id="GX7osHPojupeMqvJW22i-176" value="Task" style="points=[[0.145,0.145,0],[0.5,0,0],[0.855,0.145,0],[1,0.5,0],[0.855,0.855,0],[0.5,1,0],[0.145,0.855,0],[0,0.5,0]];shape=mxgraph.bpmn.event;html=1;verticalLabelPosition=bottom;labelBackgroundColor=#ffffff;verticalAlign=top;align=center;perimeter=ellipsePerimeter;outlineConnect=0;aspect=fixed;outline=throwing;symbol=signal;fontFamily=Helvetica;fontSize=12;fontColor=default;strokeColor=default;fillColor=default;" parent="GX7osHPojupeMqvJW22i-4" vertex="1">
          <mxGeometry x="730" y="38" width="50" height="50" as="geometry" />
        </mxCell>
        <mxCell id="GX7osHPojupeMqvJW22i-177" value="Task" style="shape=mxgraph.bpmn.data;labelPosition=center;verticalLabelPosition=bottom;align=center;verticalAlign=top;whiteSpace=wrap;size=15;html=1;fontFamily=Helvetica;fontSize=12;fontColor=default;strokeColor=default;fillColor=default;" parent="GX7osHPojupeMqvJW22i-4" vertex="1">
          <mxGeometry x="385.99999999999994" y="147" width="30" height="40" as="geometry" />
        </mxCell>
        <mxCell id="GX7osHPojupeMqvJW22i-178" value="" style="fontSize=12;html=1;endFill=0;startFill=0;endSize=6;startSize=6;dashed=1;dashPattern=1 4;endArrow=openThin;startArrow=none;rounded=0;" parent="GX7osHPojupeMqvJW22i-4" source="GX7osHPojupeMqvJW22i-177" target="GX7osHPojupeMqvJW22i-174" edge="1">
          <mxGeometry width="160" relative="1" as="geometry">
            <mxPoint x="618.3299999999999" y="529.9723311949047" as="sourcePoint" />
            <mxPoint x="757" y="1093.5" as="targetPoint" />
            <Array as="points">
              <mxPoint x="570" y="137" />
            </Array>
          </mxGeometry>
        </mxCell>
        <mxCell id="GX7osHPojupeMqvJW22i-179" value="" style="edgeStyle=orthogonalEdgeStyle;fontSize=12;html=1;endArrow=blockThin;endFill=1;rounded=0;" parent="GX7osHPojupeMqvJW22i-4" source="GX7osHPojupeMqvJW22i-171" target="GX7osHPojupeMqvJW22i-174" edge="1">
          <mxGeometry width="160" relative="1" as="geometry">
            <mxPoint x="149" y="599.5" as="sourcePoint" />
            <mxPoint x="149.00000000000023" y="956.5" as="targetPoint" />
          </mxGeometry>
        </mxCell>
        <mxCell id="GX7osHPojupeMqvJW22i-180" value="" style="points=[[0.145,0.145,0],[0.5,0,0],[0.855,0.145,0],[1,0.5,0],[0.855,0.855,0],[0.5,1,0],[0.145,0.855,0],[0,0.5,0]];shape=mxgraph.bpmn.event;html=1;verticalLabelPosition=bottom;labelBackgroundColor=#ffffff;verticalAlign=top;align=center;perimeter=ellipsePerimeter;outlineConnect=0;aspect=fixed;outline=end;symbol=terminate2;" parent="GX7osHPojupeMqvJW22i-4" vertex="1">
          <mxGeometry x="800" y="37.5" width="50" height="50" as="geometry" />
        </mxCell>
        <mxCell id="GX7osHPojupeMqvJW22i-181" value="" style="edgeStyle=orthogonalEdgeStyle;fontSize=12;html=1;endArrow=blockThin;endFill=1;rounded=0;" parent="GX7osHPojupeMqvJW22i-4" source="GX7osHPojupeMqvJW22i-176" target="GX7osHPojupeMqvJW22i-180" edge="1">
          <mxGeometry width="160" relative="1" as="geometry">
            <mxPoint x="673" y="1136.5" as="sourcePoint" />
            <mxPoint x="673.0000000000002" y="1493.5" as="targetPoint" />
          </mxGeometry>
        </mxCell>
        <mxCell id="GX7osHPojupeMqvJW22i-182" value="TaskPlan" style="shape=mxgraph.bpmn.data;labelPosition=center;verticalLabelPosition=bottom;align=center;verticalAlign=top;whiteSpace=wrap;size=15;html=1;fontFamily=Helvetica;fontSize=12;fontColor=default;strokeColor=default;fillColor=default;" parent="GX7osHPojupeMqvJW22i-4" vertex="1">
          <mxGeometry x="109.99999999999994" y="123.5" width="30" height="40" as="geometry" />
        </mxCell>
        <mxCell id="GX7osHPojupeMqvJW22i-183" value="" style="fontSize=12;html=1;endFill=0;startFill=0;endSize=6;startSize=6;dashed=1;dashPattern=1 4;endArrow=openThin;startArrow=none;rounded=0;" parent="GX7osHPojupeMqvJW22i-4" source="GX7osHPojupeMqvJW22i-167" target="GX7osHPojupeMqvJW22i-182" edge="1">
          <mxGeometry width="160" relative="1" as="geometry">
            <mxPoint x="387" y="1213.5" as="sourcePoint" />
            <mxPoint x="697" y="1093.5" as="targetPoint" />
          </mxGeometry>
        </mxCell>
        <mxCell id="GX7osHPojupeMqvJW22i-184" value="Create task" style="points=[[0.25,0,0],[0.5,0,0],[0.75,0,0],[1,0.25,0],[1,0.5,0],[1,0.75,0],[0.75,1,0],[0.5,1,0],[0.25,1,0],[0,0.75,0],[0,0.5,0],[0,0.25,0]];shape=mxgraph.bpmn.task;whiteSpace=wrap;rectStyle=rounded;size=10;taskMarker=abstract;" parent="GX7osHPojupeMqvJW22i-4" vertex="1">
          <mxGeometry x="248" y="22.5" width="120" height="80" as="geometry" />
        </mxCell>
        <mxCell id="GX7osHPojupeMqvJW22i-185" value="" style="edgeStyle=orthogonalEdgeStyle;fontSize=12;html=1;endArrow=blockThin;endFill=1;rounded=0;" parent="GX7osHPojupeMqvJW22i-4" source="GX7osHPojupeMqvJW22i-184" target="GX7osHPojupeMqvJW22i-170" edge="1">
          <mxGeometry width="160" relative="1" as="geometry">
            <mxPoint x="209" y="599.5" as="sourcePoint" />
            <mxPoint x="209.00000000000023" y="956.5" as="targetPoint" />
          </mxGeometry>
        </mxCell>
        <mxCell id="GX7osHPojupeMqvJW22i-186" value="" style="fontSize=12;html=1;endFill=0;startFill=0;endSize=6;startSize=6;dashed=1;dashPattern=1 4;endArrow=openThin;startArrow=none;rounded=0;elbow=vertical;" parent="GX7osHPojupeMqvJW22i-4" source="GX7osHPojupeMqvJW22i-184" target="GX7osHPojupeMqvJW22i-168" edge="1">
          <mxGeometry width="160" relative="1" as="geometry">
            <mxPoint x="-82" y="556.5" as="sourcePoint" />
            <mxPoint x="268" y="706.5" as="targetPoint" />
          </mxGeometry>
        </mxCell>
        <mxCell id="GX7osHPojupeMqvJW22i-187" value="" style="fontSize=12;html=1;endFill=0;startFill=0;endSize=6;startSize=6;dashed=1;dashPattern=1 4;endArrow=openThin;startArrow=none;rounded=0;" parent="GX7osHPojupeMqvJW22i-4" source="GX7osHPojupeMqvJW22i-184" target="GX7osHPojupeMqvJW22i-177" edge="1">
          <mxGeometry width="160" relative="1" as="geometry">
            <mxPoint x="447" y="1213.5" as="sourcePoint" />
            <mxPoint x="757" y="1093.5" as="targetPoint" />
          </mxGeometry>
        </mxCell>
        <mxCell id="GX7osHPojupeMqvJW22i-212" value="" style="points=[[0.145,0.145,0],[0.5,0,0],[0.855,0.145,0],[1,0.5,0],[0.855,0.855,0],[0.5,1,0],[0.145,0.855,0],[0,0.5,0]];shape=mxgraph.bpmn.event;html=1;verticalLabelPosition=bottom;labelBackgroundColor=#ffffff;verticalAlign=top;align=center;perimeter=ellipsePerimeter;outlineConnect=0;aspect=fixed;outline=standard;symbol=message;" parent="GX7osHPojupeMqvJW22i-4" vertex="1">
          <mxGeometry x="40" y="38" width="50" height="50" as="geometry" />
        </mxCell>
        <mxCell id="GX7osHPojupeMqvJW22i-214" value="" style="edgeStyle=orthogonalEdgeStyle;fontSize=12;html=1;endArrow=blockThin;endFill=1;rounded=0;" parent="GX7osHPojupeMqvJW22i-4" source="GX7osHPojupeMqvJW22i-212" target="GX7osHPojupeMqvJW22i-167" edge="1">
          <mxGeometry width="160" relative="1" as="geometry">
            <mxPoint x="239" y="599.5" as="sourcePoint" />
            <mxPoint x="239.00000000000023" y="956.5" as="targetPoint" />
          </mxGeometry>
        </mxCell>
        <mxCell id="GX7osHPojupeMqvJW22i-222" value="" style="fontSize=12;html=1;endFill=0;startFill=0;endSize=6;startSize=6;dashed=1;dashPattern=1 4;endArrow=openThin;startArrow=none;rounded=0;" parent="GX7osHPojupeMqvJW22i-4" source="GX7osHPojupeMqvJW22i-182" target="GX7osHPojupeMqvJW22i-170" edge="1">
          <mxGeometry width="160" relative="1" as="geometry">
            <mxPoint x="387" y="1213.5" as="sourcePoint" />
            <mxPoint x="697" y="1093.5" as="targetPoint" />
            <Array as="points">
              <mxPoint x="220" y="187" />
              <mxPoint x="330" y="157" />
            </Array>
          </mxGeometry>
        </mxCell>
        <mxCell id="GX7osHPojupeMqvJW22i-217" value="Node Handler" style="swimlane;html=1;startSize=20;horizontal=0;" parent="GX7osHPojupeMqvJW22i-1" vertex="1">
          <mxGeometry x="20" y="700" width="1149" height="290" as="geometry" />
        </mxCell>
        <mxCell id="GX7osHPojupeMqvJW22i-218" value="" style="points=[[0.145,0.145,0],[0.5,0,0],[0.855,0.145,0],[1,0.5,0],[0.855,0.855,0],[0.5,1,0],[0.145,0.855,0],[0,0.5,0]];shape=mxgraph.bpmn.event;html=1;verticalLabelPosition=bottom;labelBackgroundColor=#ffffff;verticalAlign=top;align=center;perimeter=ellipsePerimeter;outlineConnect=0;aspect=fixed;outline=standard;symbol=message;" parent="GX7osHPojupeMqvJW22i-217" vertex="1">
          <mxGeometry x="40" y="26" width="50" height="50" as="geometry" />
        </mxCell>
        <mxCell id="GX7osHPojupeMqvJW22i-223" value="Publish node started event" style="points=[[0.25,0,0],[0.5,0,0],[0.75,0,0],[1,0.25,0],[1,0.5,0],[1,0.75,0],[0.75,1,0],[0.5,1,0],[0.25,1,0],[0,0.75,0],[0,0.5,0],[0,0.25,0]];shape=mxgraph.bpmn.task;whiteSpace=wrap;rectStyle=rounded;size=10;taskMarker=abstract;" parent="GX7osHPojupeMqvJW22i-217" vertex="1">
          <mxGeometry x="109" y="11" width="120" height="80" as="geometry" />
        </mxCell>
        <mxCell id="GX7osHPojupeMqvJW22i-224" value="" style="edgeStyle=orthogonalEdgeStyle;fontSize=12;html=1;endArrow=blockThin;endFill=1;rounded=0;" parent="GX7osHPojupeMqvJW22i-217" source="GX7osHPojupeMqvJW22i-223" target="GX7osHPojupeMqvJW22i-225" edge="1">
          <mxGeometry width="160" relative="1" as="geometry">
            <mxPoint x="222" y="1120" as="sourcePoint" />
            <mxPoint x="222.00000000000023" y="1477" as="targetPoint" />
          </mxGeometry>
        </mxCell>
        <mxCell id="GX7osHPojupeMqvJW22i-225" value="TaskPlan" style="points=[[0.145,0.145,0],[0.5,0,0],[0.855,0.145,0],[1,0.5,0],[0.855,0.855,0],[0.5,1,0],[0.145,0.855,0],[0,0.5,0]];shape=mxgraph.bpmn.event;html=1;verticalLabelPosition=bottom;labelBackgroundColor=#ffffff;verticalAlign=top;align=center;perimeter=ellipsePerimeter;outlineConnect=0;aspect=fixed;outline=throwing;symbol=signal;fontFamily=Helvetica;fontSize=12;fontColor=default;strokeColor=default;fillColor=default;" parent="GX7osHPojupeMqvJW22i-217" vertex="1">
          <mxGeometry x="246" y="26" width="50" height="50" as="geometry" />
        </mxCell>
        <mxCell id="GX7osHPojupeMqvJW22i-226" value="TaskPlan" style="shape=mxgraph.bpmn.data;labelPosition=center;verticalLabelPosition=bottom;align=center;verticalAlign=top;whiteSpace=wrap;size=15;html=1;fontFamily=Helvetica;fontSize=12;fontColor=default;strokeColor=default;fillColor=default;" parent="GX7osHPojupeMqvJW22i-217" vertex="1">
          <mxGeometry x="253.99999999999994" y="122" width="30" height="40" as="geometry" />
        </mxCell>
        <mxCell id="GX7osHPojupeMqvJW22i-227" value="" style="fontSize=12;html=1;endFill=0;startFill=0;endSize=6;startSize=6;dashed=1;dashPattern=1 4;endArrow=openThin;startArrow=none;rounded=0;" parent="GX7osHPojupeMqvJW22i-217" source="GX7osHPojupeMqvJW22i-223" target="GX7osHPojupeMqvJW22i-226" edge="1">
          <mxGeometry width="160" relative="1" as="geometry">
            <mxPoint x="424" y="966.5" as="sourcePoint" />
            <mxPoint x="734" y="846.5" as="targetPoint" />
          </mxGeometry>
        </mxCell>
        <mxCell id="GX7osHPojupeMqvJW22i-228" value="" style="edgeStyle=orthogonalEdgeStyle;fontSize=12;html=1;endArrow=blockThin;endFill=1;rounded=0;" parent="GX7osHPojupeMqvJW22i-217" source="GX7osHPojupeMqvJW22i-218" target="GX7osHPojupeMqvJW22i-223" edge="1">
          <mxGeometry width="160" relative="1" as="geometry">
            <mxPoint x="255" y="1120" as="sourcePoint" />
            <mxPoint x="255.00000000000023" y="1477" as="targetPoint" />
          </mxGeometry>
        </mxCell>
        <mxCell id="GX7osHPojupeMqvJW22i-229" value="Extract node input" style="points=[[0.25,0,0],[0.5,0,0],[0.75,0,0],[1,0.25,0],[1,0.5,0],[1,0.75,0],[0.75,1,0],[0.5,1,0],[0.25,1,0],[0,0.75,0],[0,0.5,0],[0,0.25,0]];shape=mxgraph.bpmn.task;whiteSpace=wrap;rectStyle=rounded;size=10;taskMarker=abstract;" parent="GX7osHPojupeMqvJW22i-217" vertex="1">
          <mxGeometry x="321" y="11" width="120" height="80" as="geometry" />
        </mxCell>
        <mxCell id="GX7osHPojupeMqvJW22i-230" value="" style="edgeStyle=orthogonalEdgeStyle;fontSize=12;html=1;endArrow=blockThin;endFill=1;rounded=0;" parent="GX7osHPojupeMqvJW22i-217" source="GX7osHPojupeMqvJW22i-225" target="GX7osHPojupeMqvJW22i-229" edge="1">
          <mxGeometry width="160" relative="1" as="geometry">
            <mxPoint x="222" y="1120" as="sourcePoint" />
            <mxPoint x="222.00000000000023" y="1477" as="targetPoint" />
          </mxGeometry>
        </mxCell>
        <mxCell id="GX7osHPojupeMqvJW22i-231" value="" style="fontSize=12;html=1;endFill=0;startFill=0;endSize=6;startSize=6;dashed=1;dashPattern=1 4;endArrow=openThin;startArrow=none;rounded=0;" parent="GX7osHPojupeMqvJW22i-217" source="GX7osHPojupeMqvJW22i-226" target="GX7osHPojupeMqvJW22i-229" edge="1">
          <mxGeometry width="160" relative="1" as="geometry">
            <mxPoint x="424" y="966.5" as="sourcePoint" />
            <mxPoint x="734" y="846.5" as="targetPoint" />
          </mxGeometry>
        </mxCell>
        <mxCell id="GX7osHPojupeMqvJW22i-233" value="" style="edgeStyle=orthogonalEdgeStyle;fontSize=12;html=1;endArrow=blockThin;endFill=1;rounded=0;" parent="GX7osHPojupeMqvJW22i-217" source="GX7osHPojupeMqvJW22i-229" target="GX7osHPojupeMqvJW22i-232" edge="1">
          <mxGeometry width="160" relative="1" as="geometry">
            <mxPoint x="222" y="1124" as="sourcePoint" />
            <mxPoint x="222.00000000000023" y="1481" as="targetPoint" />
          </mxGeometry>
        </mxCell>
        <mxCell id="GX7osHPojupeMqvJW22i-235" value="" style="shape=mxgraph.bpmn.data;labelPosition=center;verticalLabelPosition=bottom;align=center;verticalAlign=top;whiteSpace=wrap;size=15;html=1;fontFamily=Helvetica;fontSize=12;fontColor=default;strokeColor=default;fillColor=default;" parent="GX7osHPojupeMqvJW22i-217" vertex="1">
          <mxGeometry x="505" y="222" width="30" height="40" as="geometry" />
        </mxCell>
        <mxCell id="GX7osHPojupeMqvJW22i-236" value="" style="fontSize=12;html=1;endFill=0;startFill=0;endSize=6;startSize=6;dashed=1;dashPattern=1 4;endArrow=openThin;startArrow=none;rounded=0;" parent="GX7osHPojupeMqvJW22i-217" source="GX7osHPojupeMqvJW22i-232" target="GX7osHPojupeMqvJW22i-235" edge="1">
          <mxGeometry width="160" relative="1" as="geometry">
            <mxPoint x="424" y="966.5" as="sourcePoint" />
            <mxPoint x="734" y="846.5" as="targetPoint" />
          </mxGeometry>
        </mxCell>
        <mxCell id="GX7osHPojupeMqvJW22i-237" value="Update task plan" style="points=[[0.25,0,0],[0.5,0,0],[0.75,0,0],[1,0.25,0],[1,0.5,0],[1,0.75,0],[0.75,1,0],[0.5,1,0],[0.25,1,0],[0,0.75,0],[0,0.5,0],[0,0.25,0]];shape=mxgraph.bpmn.task;whiteSpace=wrap;rectStyle=rounded;size=10;taskMarker=abstract;" parent="GX7osHPojupeMqvJW22i-217" vertex="1">
          <mxGeometry x="460" y="107" width="120" height="80" as="geometry" />
        </mxCell>
        <mxCell id="GX7osHPojupeMqvJW22i-238" value="" style="edgeStyle=orthogonalEdgeStyle;fontSize=12;html=1;endArrow=blockThin;endFill=1;rounded=0;" parent="GX7osHPojupeMqvJW22i-217" source="GX7osHPojupeMqvJW22i-232" target="GX7osHPojupeMqvJW22i-237" edge="1">
          <mxGeometry width="160" relative="1" as="geometry">
            <mxPoint x="222" y="1124" as="sourcePoint" />
            <mxPoint x="222.00000000000023" y="1481" as="targetPoint" />
          </mxGeometry>
        </mxCell>
        <mxCell id="GX7osHPojupeMqvJW22i-239" value="" style="fontSize=12;html=1;endFill=0;startFill=0;endSize=6;startSize=6;dashed=1;dashPattern=1 4;endArrow=openThin;startArrow=none;rounded=0;" parent="GX7osHPojupeMqvJW22i-217" source="GX7osHPojupeMqvJW22i-235" target="GX7osHPojupeMqvJW22i-237" edge="1">
          <mxGeometry width="160" relative="1" as="geometry">
            <mxPoint x="424" y="966.5" as="sourcePoint" />
            <mxPoint x="734" y="846.5" as="targetPoint" />
          </mxGeometry>
        </mxCell>
        <mxCell id="GX7osHPojupeMqvJW22i-240" value="Queue task plan" style="points=[[0.25,0,0],[0.5,0,0],[0.75,0,0],[1,0.25,0],[1,0.5,0],[1,0.75,0],[0.75,1,0],[0.5,1,0],[0.25,1,0],[0,0.75,0],[0,0.5,0],[0,0.25,0]];shape=mxgraph.bpmn.task;whiteSpace=wrap;rectStyle=rounded;size=10;taskMarker=abstract;" parent="GX7osHPojupeMqvJW22i-217" vertex="1">
          <mxGeometry x="664" y="107" width="120" height="80" as="geometry" />
        </mxCell>
        <mxCell id="GX7osHPojupeMqvJW22i-241" value="Node Handler" style="points=[[0.145,0.145,0],[0.5,0,0],[0.855,0.145,0],[1,0.5,0],[0.855,0.855,0],[0.5,1,0],[0.145,0.855,0],[0,0.5,0]];shape=mxgraph.bpmn.event;html=1;verticalLabelPosition=bottom;labelBackgroundColor=#ffffff;verticalAlign=top;align=center;perimeter=ellipsePerimeter;outlineConnect=0;aspect=fixed;outline=throwing;symbol=message;fontFamily=Helvetica;fontSize=12;fontColor=default;strokeColor=default;fillColor=default;" parent="GX7osHPojupeMqvJW22i-217" vertex="1">
          <mxGeometry x="803" y="122" width="50" height="50" as="geometry" />
        </mxCell>
        <mxCell id="GX7osHPojupeMqvJW22i-242" value="" style="edgeStyle=orthogonalEdgeStyle;fontSize=12;html=1;endArrow=blockThin;endFill=1;rounded=0;" parent="GX7osHPojupeMqvJW22i-217" source="GX7osHPojupeMqvJW22i-240" target="GX7osHPojupeMqvJW22i-241" edge="1">
          <mxGeometry width="160" relative="1" as="geometry">
            <mxPoint x="467" y="641" as="sourcePoint" />
            <mxPoint x="467.0000000000002" y="998" as="targetPoint" />
          </mxGeometry>
        </mxCell>
        <mxCell id="GX7osHPojupeMqvJW22i-243" value="" style="edgeStyle=orthogonalEdgeStyle;fontSize=12;html=1;endArrow=blockThin;endFill=1;rounded=0;" parent="GX7osHPojupeMqvJW22i-217" source="GX7osHPojupeMqvJW22i-237" target="GX7osHPojupeMqvJW22i-254" edge="1">
          <mxGeometry width="160" relative="1" as="geometry">
            <mxPoint x="222" y="1124" as="sourcePoint" />
            <mxPoint x="222.00000000000023" y="1481" as="targetPoint" />
          </mxGeometry>
        </mxCell>
        <mxCell id="GX7osHPojupeMqvJW22i-244" value="TaskPlan" style="shape=mxgraph.bpmn.data;labelPosition=center;verticalLabelPosition=bottom;align=center;verticalAlign=top;whiteSpace=wrap;size=15;html=1;fontFamily=Helvetica;fontSize=12;fontColor=default;strokeColor=default;fillColor=default;" parent="GX7osHPojupeMqvJW22i-217" vertex="1">
          <mxGeometry x="690" y="26.99999999999997" width="30" height="40" as="geometry" />
        </mxCell>
        <mxCell id="GX7osHPojupeMqvJW22i-245" value="" style="fontSize=12;html=1;endFill=0;startFill=0;endSize=6;startSize=6;dashed=1;dashPattern=1 4;endArrow=openThin;startArrow=none;rounded=0;" parent="GX7osHPojupeMqvJW22i-217" source="GX7osHPojupeMqvJW22i-237" target="GX7osHPojupeMqvJW22i-244" edge="1">
          <mxGeometry width="160" relative="1" as="geometry">
            <mxPoint x="710" y="100.08999999999975" as="sourcePoint" />
            <mxPoint x="1182" y="679.59" as="targetPoint" />
          </mxGeometry>
        </mxCell>
        <mxCell id="GX7osHPojupeMqvJW22i-246" value="" style="fontSize=12;html=1;endFill=0;startFill=0;endSize=6;startSize=6;dashed=1;dashPattern=1 4;endArrow=openThin;startArrow=none;rounded=0;" parent="GX7osHPojupeMqvJW22i-217" source="GX7osHPojupeMqvJW22i-244" target="GX7osHPojupeMqvJW22i-240" edge="1">
          <mxGeometry width="160" relative="1" as="geometry">
            <mxPoint x="872" y="799.59" as="sourcePoint" />
            <mxPoint x="805" y="95.00304347826074" as="targetPoint" />
          </mxGeometry>
        </mxCell>
        <mxCell id="GX7osHPojupeMqvJW22i-248" value="Publish node completed event" style="points=[[0.25,0,0],[0.5,0,0],[0.75,0,0],[1,0.25,0],[1,0.5,0],[1,0.75,0],[0.75,1,0],[0.5,1,0],[0.25,1,0],[0,0.75,0],[0,0.5,0],[0,0.25,0]];shape=mxgraph.bpmn.task;whiteSpace=wrap;rectStyle=rounded;size=10;taskMarker=abstract;" parent="GX7osHPojupeMqvJW22i-217" vertex="1">
          <mxGeometry x="835" y="15" width="120" height="80" as="geometry" />
        </mxCell>
        <mxCell id="GX7osHPojupeMqvJW22i-249" value="" style="edgeStyle=orthogonalEdgeStyle;fontSize=12;html=1;endArrow=blockThin;endFill=1;rounded=0;" parent="GX7osHPojupeMqvJW22i-217" source="GX7osHPojupeMqvJW22i-248" target="GX7osHPojupeMqvJW22i-250" edge="1">
          <mxGeometry width="160" relative="1" as="geometry">
            <mxPoint x="1034" y="973" as="sourcePoint" />
            <mxPoint x="1034.0000000000002" y="1330" as="targetPoint" />
          </mxGeometry>
        </mxCell>
        <mxCell id="GX7osHPojupeMqvJW22i-250" value="TaskPlan" style="points=[[0.145,0.145,0],[0.5,0,0],[0.855,0.145,0],[1,0.5,0],[0.855,0.855,0],[0.5,1,0],[0.145,0.855,0],[0,0.5,0]];shape=mxgraph.bpmn.event;html=1;verticalLabelPosition=bottom;labelBackgroundColor=#ffffff;verticalAlign=top;align=center;perimeter=ellipsePerimeter;outlineConnect=0;aspect=fixed;outline=throwing;symbol=signal;fontFamily=Helvetica;fontSize=12;fontColor=default;strokeColor=default;fillColor=default;" parent="GX7osHPojupeMqvJW22i-217" vertex="1">
          <mxGeometry x="982" y="30" width="50" height="50" as="geometry" />
        </mxCell>
        <mxCell id="GX7osHPojupeMqvJW22i-253" value="" style="edgeStyle=orthogonalEdgeStyle;fontSize=12;html=1;endArrow=blockThin;endFill=1;rounded=0;" parent="GX7osHPojupeMqvJW22i-217" source="GX7osHPojupeMqvJW22i-241" target="GX7osHPojupeMqvJW22i-258" edge="1">
          <mxGeometry width="160" relative="1" as="geometry">
            <mxPoint x="932" y="77" as="sourcePoint" />
            <mxPoint x="1067.0000000000002" y="1330" as="targetPoint" />
          </mxGeometry>
        </mxCell>
        <mxCell id="GX7osHPojupeMqvJW22i-254" value="" style="points=[[0.25,0.25,0],[0.5,0,0],[0.75,0.25,0],[1,0.5,0],[0.75,0.75,0],[0.5,1,0],[0.25,0.75,0],[0,0.5,0]];shape=mxgraph.bpmn.gateway2;html=1;verticalLabelPosition=bottom;labelBackgroundColor=#ffffff;verticalAlign=top;align=center;perimeter=rhombusPerimeter;outlineConnect=0;outline=none;symbol=none;gwType=exclusive;" parent="GX7osHPojupeMqvJW22i-217" vertex="1">
          <mxGeometry x="597" y="122" width="50" height="50" as="geometry" />
        </mxCell>
        <mxCell id="GX7osHPojupeMqvJW22i-255" value="" style="edgeStyle=orthogonalEdgeStyle;fontSize=12;html=1;endArrow=blockThin;endFill=1;rounded=0;" parent="GX7osHPojupeMqvJW22i-217" source="GX7osHPojupeMqvJW22i-254" target="GX7osHPojupeMqvJW22i-240" edge="1">
          <mxGeometry width="160" relative="1" as="geometry">
            <mxPoint x="646.9411764705883" y="147.0588235294117" as="sourcePoint" />
            <mxPoint x="186.00000000000023" y="1483" as="targetPoint" />
          </mxGeometry>
        </mxCell>
        <mxCell id="GX7osHPojupeMqvJW22i-256" value="task not completed" style="edgeStyle=elbowEdgeStyle;fontSize=12;html=1;endArrow=blockThin;endFill=1;rounded=0;" parent="GX7osHPojupeMqvJW22i-217" source="GX7osHPojupeMqvJW22i-254" target="GX7osHPojupeMqvJW22i-258" edge="1">
          <mxGeometry width="160" relative="1" as="geometry">
            <mxPoint x="622" y="172" as="sourcePoint" />
            <mxPoint x="186.00000000000023" y="1483" as="targetPoint" />
            <Array as="points">
              <mxPoint x="895" y="210" />
              <mxPoint x="804" y="202" />
            </Array>
          </mxGeometry>
        </mxCell>
        <mxCell id="GX7osHPojupeMqvJW22i-257" value="" style="fontSize=12;html=1;endFill=0;startFill=0;endSize=6;startSize=6;dashed=1;dashPattern=1 4;endArrow=openThin;startArrow=openThin;rounded=0;" parent="GX7osHPojupeMqvJW22i-217" source="GX7osHPojupeMqvJW22i-244" target="GX7osHPojupeMqvJW22i-248" edge="1">
          <mxGeometry width="160" relative="1" as="geometry">
            <mxPoint x="872" y="799.59" as="sourcePoint" />
            <mxPoint x="805" y="95.00304347826074" as="targetPoint" />
          </mxGeometry>
        </mxCell>
        <mxCell id="GX7osHPojupeMqvJW22i-258" value="" style="points=[[0.25,0.25,0],[0.5,0,0],[0.75,0.25,0],[1,0.5,0],[0.75,0.75,0],[0.5,1,0],[0.25,0.75,0],[0,0.5,0]];shape=mxgraph.bpmn.gateway2;html=1;verticalLabelPosition=bottom;labelBackgroundColor=#ffffff;verticalAlign=top;align=center;perimeter=rhombusPerimeter;outlineConnect=0;outline=none;symbol=none;gwType=exclusive;" parent="GX7osHPojupeMqvJW22i-217" vertex="1">
          <mxGeometry x="870" y="122" width="50" height="50" as="geometry" />
        </mxCell>
        <mxCell id="GX7osHPojupeMqvJW22i-259" value="" style="edgeStyle=orthogonalEdgeStyle;fontSize=12;html=1;endArrow=blockThin;endFill=1;rounded=0;" parent="GX7osHPojupeMqvJW22i-217" source="GX7osHPojupeMqvJW22i-258" target="GX7osHPojupeMqvJW22i-248" edge="1">
          <mxGeometry width="160" relative="1" as="geometry">
            <mxPoint x="932" y="77" as="sourcePoint" />
            <mxPoint x="1067.0000000000002" y="1330" as="targetPoint" />
          </mxGeometry>
        </mxCell>
        <mxCell id="GX7osHPojupeMqvJW22i-260" value="" style="points=[[0.145,0.145,0],[0.5,0,0],[0.855,0.145,0],[1,0.5,0],[0.855,0.855,0],[0.5,1,0],[0.145,0.855,0],[0,0.5,0]];shape=mxgraph.bpmn.event;html=1;verticalLabelPosition=bottom;labelBackgroundColor=#ffffff;verticalAlign=top;align=center;perimeter=ellipsePerimeter;outlineConnect=0;aspect=fixed;outline=end;symbol=terminate2;" parent="GX7osHPojupeMqvJW22i-217" vertex="1">
          <mxGeometry x="982" y="212" width="50" height="50" as="geometry" />
        </mxCell>
        <mxCell id="GX7osHPojupeMqvJW22i-261" value="" style="edgeStyle=orthogonalEdgeStyle;fontSize=12;html=1;endArrow=blockThin;endFill=1;rounded=0;" parent="GX7osHPojupeMqvJW22i-217" source="GX7osHPojupeMqvJW22i-250" target="JMrL7uiw3fRfpIFlFQm5-38" edge="1">
          <mxGeometry width="160" relative="1" as="geometry">
            <mxPoint x="1044" y="963" as="sourcePoint" />
            <mxPoint x="1044.0000000000002" y="1320" as="targetPoint" />
          </mxGeometry>
        </mxCell>
        <mxCell id="GX7osHPojupeMqvJW22i-263" value="DLQ Handler" style="points=[[0.145,0.145,0],[0.5,0,0],[0.855,0.145,0],[1,0.5,0],[0.855,0.855,0],[0.5,1,0],[0.145,0.855,0],[0,0.5,0]];shape=mxgraph.bpmn.event;html=1;verticalLabelPosition=bottom;labelBackgroundColor=#ffffff;verticalAlign=top;align=center;perimeter=ellipsePerimeter;outlineConnect=0;aspect=fixed;outline=end;symbol=message;" parent="GX7osHPojupeMqvJW22i-217" vertex="1">
          <mxGeometry x="395" y="212" width="50" height="50" as="geometry" />
        </mxCell>
        <mxCell id="GX7osHPojupeMqvJW22i-264" value="" style="edgeStyle=orthogonalEdgeStyle;fontSize=12;html=1;endArrow=blockThin;endFill=1;rounded=0;" parent="GX7osHPojupeMqvJW22i-217" source="GX7osHPojupeMqvJW22i-262" target="GX7osHPojupeMqvJW22i-263" edge="1">
          <mxGeometry width="160" relative="1" as="geometry">
            <mxPoint x="222" y="1124" as="sourcePoint" />
            <mxPoint x="222.00000000000023" y="1481" as="targetPoint" />
          </mxGeometry>
        </mxCell>
        <mxCell id="JMrL7uiw3fRfpIFlFQm5-38" value="Put S3 object" style="points=[[0.25,0,0],[0.5,0,0],[0.75,0,0],[1,0.25,0],[1,0.5,0],[1,0.75,0],[0.75,1,0],[0.5,1,0],[0.25,1,0],[0,0.75,0],[0,0.5,0],[0,0.25,0]];shape=mxgraph.bpmn.task;whiteSpace=wrap;rectStyle=rounded;size=10;taskMarker=abstract;" parent="GX7osHPojupeMqvJW22i-217" vertex="1">
          <mxGeometry x="947" y="107" width="120" height="80" as="geometry" />
        </mxCell>
        <mxCell id="JMrL7uiw3fRfpIFlFQm5-39" value="" style="edgeStyle=orthogonalEdgeStyle;fontSize=12;html=1;endArrow=blockThin;endFill=1;rounded=0;" parent="GX7osHPojupeMqvJW22i-217" source="JMrL7uiw3fRfpIFlFQm5-38" target="GX7osHPojupeMqvJW22i-260" edge="1">
          <mxGeometry width="160" relative="1" as="geometry">
            <mxPoint x="1044" y="963" as="sourcePoint" />
            <mxPoint x="1044.0000000000002" y="1320" as="targetPoint" />
          </mxGeometry>
        </mxCell>
        <mxCell id="JMrL7uiw3fRfpIFlFQm5-40" value="" style="shape=mxgraph.bpmn.data;labelPosition=center;verticalLabelPosition=bottom;align=center;verticalAlign=top;whiteSpace=wrap;size=15;html=1;bpmnTransferType=output;" parent="GX7osHPojupeMqvJW22i-217" vertex="1">
          <mxGeometry x="1090" y="127" width="30" height="40" as="geometry" />
        </mxCell>
        <mxCell id="JMrL7uiw3fRfpIFlFQm5-41" value="" style="fontSize=12;html=1;endFill=0;startFill=0;endSize=6;startSize=6;dashed=1;dashPattern=1 4;endArrow=openThin;startArrow=none;rounded=0;" parent="GX7osHPojupeMqvJW22i-217" source="JMrL7uiw3fRfpIFlFQm5-38" target="JMrL7uiw3fRfpIFlFQm5-40" edge="1">
          <mxGeometry width="160" relative="1" as="geometry">
            <mxPoint x="720" y="100.08999999999975" as="sourcePoint" />
            <mxPoint x="1192" y="679.59" as="targetPoint" />
          </mxGeometry>
        </mxCell>
        <mxCell id="JMrL7uiw3fRfpIFlFQm5-43" value="" style="group" parent="GX7osHPojupeMqvJW22i-217" vertex="1" connectable="0">
          <mxGeometry x="321" y="107" width="120" height="90" as="geometry" />
        </mxCell>
        <mxCell id="GX7osHPojupeMqvJW22i-232" value="Execute node" style="points=[[0.25,0,0],[0.5,0,0],[0.75,0,0],[1,0.25,0],[1,0.5,0],[1,0.75,0],[0.75,1,0],[0.5,1,0],[0.25,1,0],[0,0.75,0],[0,0.5,0],[0,0.25,0]];shape=mxgraph.bpmn.task;whiteSpace=wrap;rectStyle=rounded;size=10;taskMarker=abstract;isLoopSub=1;fontFamily=Helvetica;fontSize=12;fontColor=default;align=center;strokeColor=default;fillColor=default;" parent="JMrL7uiw3fRfpIFlFQm5-43" vertex="1">
          <mxGeometry width="120" height="80" as="geometry" />
        </mxCell>
        <mxCell id="GX7osHPojupeMqvJW22i-262" value="" style="points=[[0.145,0.145,0],[0.5,0,0],[0.855,0.145,0],[1,0.5,0],[0.855,0.855,0],[0.5,1,0],[0.145,0.855,0],[0,0.5,0]];shape=mxgraph.bpmn.event;html=1;verticalLabelPosition=bottom;labelBackgroundColor=#ffffff;verticalAlign=top;align=center;perimeter=ellipsePerimeter;outlineConnect=0;aspect=fixed;outline=boundInt;symbol=error;" parent="JMrL7uiw3fRfpIFlFQm5-43" vertex="1">
          <mxGeometry x="89" y="70" width="20" height="20" as="geometry" />
        </mxCell>
        <mxCell id="JMrL7uiw3fRfpIFlFQm5-59" value="" style="fontSize=12;html=1;endFill=0;startFill=0;endSize=6;startSize=6;dashed=1;dashPattern=1 4;endArrow=openThin;startArrow=none;rounded=0;" parent="GX7osHPojupeMqvJW22i-217" source="GX7osHPojupeMqvJW22i-235" target="JMrL7uiw3fRfpIFlFQm5-38" edge="1">
          <mxGeometry width="160" relative="1" as="geometry">
            <mxPoint x="424" y="966.5" as="sourcePoint" />
            <mxPoint x="734" y="846.5" as="targetPoint" />
            <Array as="points">
              <mxPoint x="900" y="247" />
            </Array>
          </mxGeometry>
        </mxCell>
        <mxCell id="GX7osHPojupeMqvJW22i-265" value="DLQ Handler" style="swimlane;html=1;startSize=20;horizontal=0;" parent="GX7osHPojupeMqvJW22i-1" vertex="1">
          <mxGeometry x="20" y="990" width="1149" height="170" as="geometry" />
        </mxCell>
        <mxCell id="GX7osHPojupeMqvJW22i-266" value="" style="points=[[0.145,0.145,0],[0.5,0,0],[0.855,0.145,0],[1,0.5,0],[0.855,0.855,0],[0.5,1,0],[0.145,0.855,0],[0,0.5,0]];shape=mxgraph.bpmn.event;html=1;verticalLabelPosition=bottom;labelBackgroundColor=#ffffff;verticalAlign=top;align=center;perimeter=ellipsePerimeter;outlineConnect=0;aspect=fixed;outline=standard;symbol=message;" parent="GX7osHPojupeMqvJW22i-265" vertex="1">
          <mxGeometry x="40" y="31" width="50" height="50" as="geometry" />
        </mxCell>
        <mxCell id="GX7osHPojupeMqvJW22i-282" value="" style="points=[[0.145,0.145,0],[0.5,0,0],[0.855,0.145,0],[1,0.5,0],[0.855,0.855,0],[0.5,1,0],[0.145,0.855,0],[0,0.5,0]];shape=mxgraph.bpmn.event;html=1;verticalLabelPosition=bottom;labelBackgroundColor=#ffffff;verticalAlign=top;align=center;perimeter=ellipsePerimeter;outlineConnect=0;aspect=fixed;outline=end;symbol=terminate2;" parent="GX7osHPojupeMqvJW22i-265" vertex="1">
          <mxGeometry x="460" y="31" width="50" height="50" as="geometry" />
        </mxCell>
        <mxCell id="GX7osHPojupeMqvJW22i-283" value="" style="edgeStyle=orthogonalEdgeStyle;fontSize=12;html=1;endArrow=blockThin;endFill=1;rounded=0;" parent="GX7osHPojupeMqvJW22i-265" source="GX7osHPojupeMqvJW22i-266" target="JMrL7uiw3fRfpIFlFQm5-52" edge="1">
          <mxGeometry width="160" relative="1" as="geometry">
            <mxPoint x="222" y="835" as="sourcePoint" />
            <mxPoint x="222.00000000000023" y="1192" as="targetPoint" />
          </mxGeometry>
        </mxCell>
        <mxCell id="JMrL7uiw3fRfpIFlFQm5-47" value="Publish task" style="points=[[0.25,0,0],[0.5,0,0],[0.75,0,0],[1,0.25,0],[1,0.5,0],[1,0.75,0],[0.75,1,0],[0.5,1,0],[0.25,1,0],[0,0.75,0],[0,0.5,0],[0,0.25,0]];shape=mxgraph.bpmn.task;whiteSpace=wrap;rectStyle=rounded;size=10;taskMarker=abstract;" parent="GX7osHPojupeMqvJW22i-265" vertex="1">
          <mxGeometry x="250" y="16" width="120" height="80" as="geometry" />
        </mxCell>
        <mxCell id="JMrL7uiw3fRfpIFlFQm5-48" value="" style="edgeStyle=orthogonalEdgeStyle;fontSize=12;html=1;endArrow=blockThin;endFill=1;rounded=0;" parent="GX7osHPojupeMqvJW22i-265" source="JMrL7uiw3fRfpIFlFQm5-47" target="JMrL7uiw3fRfpIFlFQm5-49" edge="1">
          <mxGeometry width="160" relative="1" as="geometry">
            <mxPoint x="884" y="714" as="sourcePoint" />
            <mxPoint x="884.0000000000002" y="1071" as="targetPoint" />
          </mxGeometry>
        </mxCell>
        <mxCell id="JMrL7uiw3fRfpIFlFQm5-49" value="Task" style="points=[[0.145,0.145,0],[0.5,0,0],[0.855,0.145,0],[1,0.5,0],[0.855,0.855,0],[0.5,1,0],[0.145,0.855,0],[0,0.5,0]];shape=mxgraph.bpmn.event;html=1;verticalLabelPosition=bottom;labelBackgroundColor=#ffffff;verticalAlign=top;align=center;perimeter=ellipsePerimeter;outlineConnect=0;aspect=fixed;outline=throwing;symbol=signal;fontFamily=Helvetica;fontSize=12;fontColor=default;strokeColor=default;fillColor=default;" parent="GX7osHPojupeMqvJW22i-265" vertex="1">
          <mxGeometry x="390" y="31" width="50" height="50" as="geometry" />
        </mxCell>
        <mxCell id="JMrL7uiw3fRfpIFlFQm5-50" value="" style="edgeStyle=orthogonalEdgeStyle;fontSize=12;html=1;endArrow=blockThin;endFill=1;rounded=0;" parent="GX7osHPojupeMqvJW22i-265" source="JMrL7uiw3fRfpIFlFQm5-49" target="GX7osHPojupeMqvJW22i-282" edge="1">
          <mxGeometry width="160" relative="1" as="geometry">
            <mxPoint x="362" y="835" as="sourcePoint" />
            <mxPoint x="362.0000000000002" y="1192" as="targetPoint" />
          </mxGeometry>
        </mxCell>
        <mxCell id="JMrL7uiw3fRfpIFlFQm5-51" value="" style="shape=datastore;whiteSpace=wrap;html=1;labelPosition=center;verticalLabelPosition=bottom;align=center;verticalAlign=top;aspect=fixed;" parent="GX7osHPojupeMqvJW22i-265" vertex="1">
          <mxGeometry x="50" y="101" width="40" height="40" as="geometry" />
        </mxCell>
        <mxCell id="JMrL7uiw3fRfpIFlFQm5-52" value="Update task" style="points=[[0.25,0,0],[0.5,0,0],[0.75,0,0],[1,0.25,0],[1,0.5,0],[1,0.75,0],[0.75,1,0],[0.5,1,0],[0.25,1,0],[0,0.75,0],[0,0.5,0],[0,0.25,0]];shape=mxgraph.bpmn.task;whiteSpace=wrap;rectStyle=rounded;size=10;taskMarker=abstract;" parent="GX7osHPojupeMqvJW22i-265" vertex="1">
          <mxGeometry x="110" y="16" width="120" height="80" as="geometry" />
        </mxCell>
        <mxCell id="JMrL7uiw3fRfpIFlFQm5-53" value="" style="fontSize=12;html=1;endFill=0;startFill=0;endSize=6;startSize=6;dashed=1;dashPattern=1 4;endArrow=openThin;startArrow=none;rounded=0;" parent="GX7osHPojupeMqvJW22i-265" source="JMrL7uiw3fRfpIFlFQm5-52" target="JMrL7uiw3fRfpIFlFQm5-51" edge="1">
          <mxGeometry width="160" relative="1" as="geometry">
            <mxPoint x="479" y="-165.5" as="sourcePoint" />
            <mxPoint x="789" y="-285.5" as="targetPoint" />
          </mxGeometry>
        </mxCell>
        <mxCell id="JMrL7uiw3fRfpIFlFQm5-54" value="" style="edgeStyle=orthogonalEdgeStyle;fontSize=12;html=1;endArrow=blockThin;endFill=1;rounded=0;" parent="GX7osHPojupeMqvJW22i-265" source="JMrL7uiw3fRfpIFlFQm5-52" target="JMrL7uiw3fRfpIFlFQm5-47" edge="1">
          <mxGeometry width="160" relative="1" as="geometry">
            <mxPoint x="222" y="835" as="sourcePoint" />
            <mxPoint x="222.00000000000023" y="1192" as="targetPoint" />
          </mxGeometry>
        </mxCell>
        <mxCell id="JMrL7uiw3fRfpIFlFQm5-55" value="Task" style="shape=mxgraph.bpmn.data;labelPosition=center;verticalLabelPosition=bottom;align=center;verticalAlign=top;whiteSpace=wrap;size=15;html=1;fontFamily=Helvetica;fontSize=12;fontColor=default;strokeColor=default;fillColor=default;" parent="GX7osHPojupeMqvJW22i-265" vertex="1">
          <mxGeometry x="230" y="101" width="30" height="40" as="geometry" />
        </mxCell>
        <mxCell id="JMrL7uiw3fRfpIFlFQm5-56" value="" style="fontSize=12;html=1;endFill=0;startFill=0;endSize=6;startSize=6;dashed=1;dashPattern=1 4;endArrow=openThin;startArrow=none;rounded=0;" parent="GX7osHPojupeMqvJW22i-265" source="JMrL7uiw3fRfpIFlFQm5-52" target="JMrL7uiw3fRfpIFlFQm5-55" edge="1">
          <mxGeometry width="160" relative="1" as="geometry">
            <mxPoint x="190" y="147.086956521739" as="sourcePoint" />
            <mxPoint x="664" y="-200.5" as="targetPoint" />
            <Array as="points">
              <mxPoint x="200" y="111" />
            </Array>
          </mxGeometry>
        </mxCell>
        <mxCell id="JMrL7uiw3fRfpIFlFQm5-57" value="" style="fontSize=12;html=1;endFill=0;startFill=0;endSize=6;startSize=6;dashed=1;dashPattern=1 4;endArrow=openThin;startArrow=none;rounded=0;" parent="GX7osHPojupeMqvJW22i-265" source="JMrL7uiw3fRfpIFlFQm5-55" target="JMrL7uiw3fRfpIFlFQm5-47" edge="1">
          <mxGeometry width="160" relative="1" as="geometry">
            <mxPoint x="354" y="-80.5" as="sourcePoint" />
            <mxPoint x="300" y="147.086956521739" as="targetPoint" />
            <Array as="points">
              <mxPoint x="290" y="111" />
            </Array>
          </mxGeometry>
        </mxCell>
        <mxCell id="GX7osHPojupeMqvJW22i-268" value="Task Status Handler" style="swimlane;html=1;startSize=20;horizontal=0;" parent="GX7osHPojupeMqvJW22i-1" vertex="1">
          <mxGeometry x="20" y="1160" width="1149" height="210" as="geometry" />
        </mxCell>
        <mxCell id="GX7osHPojupeMqvJW22i-269" value="TaskPlan" style="points=[[0.145,0.145,0],[0.5,0,0],[0.855,0.145,0],[1,0.5,0],[0.855,0.855,0],[0.5,1,0],[0.145,0.855,0],[0,0.5,0]];shape=mxgraph.bpmn.event;html=1;verticalLabelPosition=bottom;labelBackgroundColor=#ffffff;verticalAlign=top;align=center;perimeter=ellipsePerimeter;outlineConnect=0;aspect=fixed;outline=standard;symbol=signal;" parent="GX7osHPojupeMqvJW22i-268" vertex="1">
          <mxGeometry x="40" y="69" width="50" height="50" as="geometry" />
        </mxCell>
        <mxCell id="GX7osHPojupeMqvJW22i-270" value="" style="shape=datastore;whiteSpace=wrap;html=1;labelPosition=center;verticalLabelPosition=bottom;align=center;verticalAlign=top;aspect=fixed;" parent="GX7osHPojupeMqvJW22i-268" vertex="1">
          <mxGeometry x="265" y="9" width="40" height="40" as="geometry" />
        </mxCell>
        <mxCell id="GX7osHPojupeMqvJW22i-271" value="Update task" style="points=[[0.25,0,0],[0.5,0,0],[0.75,0,0],[1,0.25,0],[1,0.5,0],[1,0.75,0],[0.75,1,0],[0.5,1,0],[0.25,1,0],[0,0.75,0],[0,0.5,0],[0,0.25,0]];shape=mxgraph.bpmn.task;whiteSpace=wrap;rectStyle=rounded;size=10;taskMarker=abstract;" parent="GX7osHPojupeMqvJW22i-268" vertex="1">
          <mxGeometry x="340" y="54" width="120" height="80" as="geometry" />
        </mxCell>
        <mxCell id="GX7osHPojupeMqvJW22i-272" value="" style="edgeStyle=orthogonalEdgeStyle;fontSize=12;html=1;endArrow=blockThin;endFill=1;rounded=0;" parent="GX7osHPojupeMqvJW22i-268" source="GX7osHPojupeMqvJW22i-276" target="GX7osHPojupeMqvJW22i-278" edge="1">
          <mxGeometry width="160" relative="1" as="geometry">
            <mxPoint x="222" y="733" as="sourcePoint" />
            <mxPoint x="222.00000000000023" y="1090" as="targetPoint" />
          </mxGeometry>
        </mxCell>
        <mxCell id="GX7osHPojupeMqvJW22i-273" value="" style="fontSize=12;html=1;endFill=0;startFill=0;endSize=6;startSize=6;dashed=1;dashPattern=1 4;endArrow=openThin;startArrow=none;rounded=0;" parent="GX7osHPojupeMqvJW22i-268" source="GX7osHPojupeMqvJW22i-271" target="GX7osHPojupeMqvJW22i-270" edge="1">
          <mxGeometry width="160" relative="1" as="geometry">
            <mxPoint x="644" y="575.5" as="sourcePoint" />
            <mxPoint x="954" y="455.5" as="targetPoint" />
          </mxGeometry>
        </mxCell>
        <mxCell id="GX7osHPojupeMqvJW22i-275" value="" style="edgeStyle=orthogonalEdgeStyle;fontSize=12;html=1;endArrow=blockThin;endFill=1;rounded=0;" parent="GX7osHPojupeMqvJW22i-268" source="GX7osHPojupeMqvJW22i-271" target="GX7osHPojupeMqvJW22i-293" edge="1">
          <mxGeometry width="160" relative="1" as="geometry">
            <mxPoint x="442" y="733" as="sourcePoint" />
            <mxPoint x="490" y="94" as="targetPoint" />
          </mxGeometry>
        </mxCell>
        <mxCell id="GX7osHPojupeMqvJW22i-276" value="Check timestamp (DynamoDB update condition)" style="points=[[0.25,0,0],[0.5,0,0],[0.75,0,0],[1,0.25,0],[1,0.5,0],[1,0.75,0],[0.75,1,0],[0.5,1,0],[0.25,1,0],[0,0.75,0],[0,0.5,0],[0,0.25,0]];shape=mxgraph.bpmn.task;whiteSpace=wrap;rectStyle=rounded;size=10;taskMarker=abstract;" parent="GX7osHPojupeMqvJW22i-268" vertex="1">
          <mxGeometry x="120" y="54" width="120" height="80" as="geometry" />
        </mxCell>
        <mxCell id="GX7osHPojupeMqvJW22i-277" value="" style="edgeStyle=orthogonalEdgeStyle;fontSize=12;html=1;endArrow=blockThin;endFill=1;rounded=0;" parent="GX7osHPojupeMqvJW22i-268" source="GX7osHPojupeMqvJW22i-269" target="GX7osHPojupeMqvJW22i-276" edge="1">
          <mxGeometry width="160" relative="1" as="geometry">
            <mxPoint x="222" y="733" as="sourcePoint" />
            <mxPoint x="222.00000000000023" y="1090" as="targetPoint" />
          </mxGeometry>
        </mxCell>
        <mxCell id="GX7osHPojupeMqvJW22i-278" value="" style="points=[[0.25,0.25,0],[0.5,0,0],[0.75,0.25,0],[1,0.5,0],[0.75,0.75,0],[0.5,1,0],[0.25,0.75,0],[0,0.5,0]];shape=mxgraph.bpmn.gateway2;html=1;verticalLabelPosition=bottom;labelBackgroundColor=#ffffff;verticalAlign=top;align=center;perimeter=rhombusPerimeter;outlineConnect=0;outline=none;symbol=none;gwType=exclusive;" parent="GX7osHPojupeMqvJW22i-268" vertex="1">
          <mxGeometry x="264" y="69" width="50" height="50" as="geometry" />
        </mxCell>
        <mxCell id="GX7osHPojupeMqvJW22i-279" value="" style="edgeStyle=orthogonalEdgeStyle;fontSize=12;html=1;endArrow=blockThin;endFill=1;rounded=0;" parent="GX7osHPojupeMqvJW22i-268" source="GX7osHPojupeMqvJW22i-278" target="GX7osHPojupeMqvJW22i-271" edge="1">
          <mxGeometry width="160" relative="1" as="geometry">
            <mxPoint x="222" y="733" as="sourcePoint" />
            <mxPoint x="222.00000000000023" y="1090" as="targetPoint" />
          </mxGeometry>
        </mxCell>
        <mxCell id="GX7osHPojupeMqvJW22i-280" value="" style="points=[[0.145,0.145,0],[0.5,0,0],[0.855,0.145,0],[1,0.5,0],[0.855,0.855,0],[0.5,1,0],[0.145,0.855,0],[0,0.5,0]];shape=mxgraph.bpmn.event;html=1;verticalLabelPosition=bottom;labelBackgroundColor=#ffffff;verticalAlign=top;align=center;perimeter=ellipsePerimeter;outlineConnect=0;aspect=fixed;outline=end;symbol=error;fontFamily=Helvetica;fontSize=12;fontColor=default;strokeColor=default;fillColor=default;" parent="GX7osHPojupeMqvJW22i-268" vertex="1">
          <mxGeometry x="264" y="149" width="50" height="50" as="geometry" />
        </mxCell>
        <mxCell id="GX7osHPojupeMqvJW22i-281" value="outdated" style="edgeStyle=orthogonalEdgeStyle;fontSize=12;html=1;endArrow=blockThin;endFill=1;rounded=0;" parent="GX7osHPojupeMqvJW22i-268" source="GX7osHPojupeMqvJW22i-278" target="GX7osHPojupeMqvJW22i-280" edge="1">
          <mxGeometry width="160" relative="1" as="geometry">
            <mxPoint x="222" y="733" as="sourcePoint" />
            <mxPoint x="222.00000000000023" y="1090" as="targetPoint" />
          </mxGeometry>
        </mxCell>
        <mxCell id="GX7osHPojupeMqvJW22i-284" value="" style="fontSize=12;html=1;endFill=0;startFill=0;endSize=6;startSize=6;dashed=1;dashPattern=1 4;endArrow=openThin;startArrow=none;rounded=0;" parent="GX7osHPojupeMqvJW22i-268" source="GX7osHPojupeMqvJW22i-270" target="GX7osHPojupeMqvJW22i-276" edge="1">
          <mxGeometry width="160" relative="1" as="geometry">
            <mxPoint x="200" y="29" as="sourcePoint" />
            <mxPoint x="325.0000000000002" y="643.304347826087" as="targetPoint" />
          </mxGeometry>
        </mxCell>
        <mxCell id="GX7osHPojupeMqvJW22i-285" value="Publish task" style="points=[[0.25,0,0],[0.5,0,0],[0.75,0,0],[1,0.25,0],[1,0.5,0],[1,0.75,0],[0.75,1,0],[0.5,1,0],[0.25,1,0],[0,0.75,0],[0,0.5,0],[0,0.25,0]];shape=mxgraph.bpmn.task;whiteSpace=wrap;rectStyle=rounded;size=10;taskMarker=abstract;" parent="GX7osHPojupeMqvJW22i-268" vertex="1">
          <mxGeometry x="570" y="54" width="120" height="80" as="geometry" />
        </mxCell>
        <mxCell id="GX7osHPojupeMqvJW22i-286" value="" style="edgeStyle=orthogonalEdgeStyle;fontSize=12;html=1;endArrow=blockThin;endFill=1;rounded=0;" parent="GX7osHPojupeMqvJW22i-268" source="GX7osHPojupeMqvJW22i-285" target="GX7osHPojupeMqvJW22i-287" edge="1">
          <mxGeometry width="160" relative="1" as="geometry">
            <mxPoint x="645" y="1215" as="sourcePoint" />
            <mxPoint x="645.0000000000002" y="1572" as="targetPoint" />
          </mxGeometry>
        </mxCell>
        <mxCell id="GX7osHPojupeMqvJW22i-287" value="Task" style="points=[[0.145,0.145,0],[0.5,0,0],[0.855,0.145,0],[1,0.5,0],[0.855,0.855,0],[0.5,1,0],[0.145,0.855,0],[0,0.5,0]];shape=mxgraph.bpmn.event;html=1;verticalLabelPosition=bottom;labelBackgroundColor=#ffffff;verticalAlign=top;align=center;perimeter=ellipsePerimeter;outlineConnect=0;aspect=fixed;outline=throwing;symbol=signal;fontFamily=Helvetica;fontSize=12;fontColor=default;strokeColor=default;fillColor=default;" parent="GX7osHPojupeMqvJW22i-268" vertex="1">
          <mxGeometry x="707" y="69.5" width="50" height="50" as="geometry" />
        </mxCell>
        <mxCell id="GX7osHPojupeMqvJW22i-288" value="" style="points=[[0.145,0.145,0],[0.5,0,0],[0.855,0.145,0],[1,0.5,0],[0.855,0.855,0],[0.5,1,0],[0.145,0.855,0],[0,0.5,0]];shape=mxgraph.bpmn.event;html=1;verticalLabelPosition=bottom;labelBackgroundColor=#ffffff;verticalAlign=top;align=center;perimeter=ellipsePerimeter;outlineConnect=0;aspect=fixed;outline=end;symbol=terminate2;" parent="GX7osHPojupeMqvJW22i-268" vertex="1">
          <mxGeometry x="850" y="69" width="50" height="50" as="geometry" />
        </mxCell>
        <mxCell id="GX7osHPojupeMqvJW22i-289" value="" style="edgeStyle=orthogonalEdgeStyle;fontSize=12;html=1;endArrow=blockThin;endFill=1;rounded=0;" parent="GX7osHPojupeMqvJW22i-268" source="GX7osHPojupeMqvJW22i-287" target="GX7osHPojupeMqvJW22i-295" edge="1">
          <mxGeometry width="160" relative="1" as="geometry">
            <mxPoint x="630" y="1215" as="sourcePoint" />
            <mxPoint x="630.0000000000002" y="1572" as="targetPoint" />
          </mxGeometry>
        </mxCell>
        <mxCell id="GX7osHPojupeMqvJW22i-290" value="Task" style="shape=mxgraph.bpmn.data;labelPosition=center;verticalLabelPosition=bottom;align=center;verticalAlign=top;whiteSpace=wrap;size=15;html=1;fontFamily=Helvetica;fontSize=12;fontColor=default;strokeColor=default;fillColor=default;" parent="GX7osHPojupeMqvJW22i-268" vertex="1">
          <mxGeometry x="499.99999999999994" y="9" width="30" height="40" as="geometry" />
        </mxCell>
        <mxCell id="GX7osHPojupeMqvJW22i-291" value="" style="fontSize=12;html=1;endFill=0;startFill=0;endSize=6;startSize=6;dashed=1;dashPattern=1 4;endArrow=openThin;startArrow=none;rounded=0;" parent="GX7osHPojupeMqvJW22i-268" source="GX7osHPojupeMqvJW22i-271" target="GX7osHPojupeMqvJW22i-290" edge="1">
          <mxGeometry width="160" relative="1" as="geometry">
            <mxPoint x="644" y="575.5" as="sourcePoint" />
            <mxPoint x="954" y="455.5" as="targetPoint" />
          </mxGeometry>
        </mxCell>
        <mxCell id="GX7osHPojupeMqvJW22i-292" value="" style="fontSize=12;html=1;endFill=0;startFill=0;endSize=6;startSize=6;dashed=1;dashPattern=1 4;endArrow=openThin;startArrow=none;rounded=0;" parent="GX7osHPojupeMqvJW22i-268" source="GX7osHPojupeMqvJW22i-290" target="GX7osHPojupeMqvJW22i-285" edge="1">
          <mxGeometry width="160" relative="1" as="geometry">
            <mxPoint x="644" y="575.5" as="sourcePoint" />
            <mxPoint x="954" y="455.5" as="targetPoint" />
          </mxGeometry>
        </mxCell>
        <mxCell id="GX7osHPojupeMqvJW22i-293" value="" style="points=[[0.25,0.25,0],[0.5,0,0],[0.75,0.25,0],[1,0.5,0],[0.75,0.75,0],[0.5,1,0],[0.25,0.75,0],[0,0.5,0]];shape=mxgraph.bpmn.gateway2;html=1;verticalLabelPosition=bottom;labelBackgroundColor=#ffffff;verticalAlign=top;align=center;perimeter=rhombusPerimeter;outlineConnect=0;outline=none;symbol=none;gwType=exclusive;" parent="GX7osHPojupeMqvJW22i-268" vertex="1">
          <mxGeometry x="490" y="69.5" width="50" height="50" as="geometry" />
        </mxCell>
        <mxCell id="GX7osHPojupeMqvJW22i-294" value="" style="edgeStyle=orthogonalEdgeStyle;fontSize=12;html=1;endArrow=blockThin;endFill=1;rounded=0;" parent="GX7osHPojupeMqvJW22i-268" source="GX7osHPojupeMqvJW22i-293" target="GX7osHPojupeMqvJW22i-285" edge="1">
          <mxGeometry width="160" relative="1" as="geometry">
            <mxPoint x="442" y="733" as="sourcePoint" />
            <mxPoint x="490" y="94" as="targetPoint" />
          </mxGeometry>
        </mxCell>
        <mxCell id="GX7osHPojupeMqvJW22i-295" value="" style="points=[[0.25,0.25,0],[0.5,0,0],[0.75,0.25,0],[1,0.5,0],[0.75,0.75,0],[0.5,1,0],[0.25,0.75,0],[0,0.5,0]];shape=mxgraph.bpmn.gateway2;html=1;verticalLabelPosition=bottom;labelBackgroundColor=#ffffff;verticalAlign=top;align=center;perimeter=rhombusPerimeter;outlineConnect=0;outline=none;symbol=none;gwType=exclusive;" parent="GX7osHPojupeMqvJW22i-268" vertex="1">
          <mxGeometry x="780" y="69" width="50" height="50" as="geometry" />
        </mxCell>
        <mxCell id="GX7osHPojupeMqvJW22i-296" value="" style="edgeStyle=orthogonalEdgeStyle;fontSize=12;html=1;endArrow=blockThin;endFill=1;rounded=0;" parent="GX7osHPojupeMqvJW22i-268" source="GX7osHPojupeMqvJW22i-295" target="GX7osHPojupeMqvJW22i-288" edge="1">
          <mxGeometry width="160" relative="1" as="geometry">
            <mxPoint x="630" y="1215" as="sourcePoint" />
            <mxPoint x="630.0000000000002" y="1572" as="targetPoint" />
          </mxGeometry>
        </mxCell>
        <mxCell id="GX7osHPojupeMqvJW22i-297" value="uncompleted nodes" style="edgeStyle=elbowEdgeStyle;fontSize=12;html=1;endArrow=blockThin;endFill=1;rounded=0;elbow=vertical;" parent="GX7osHPojupeMqvJW22i-268" source="GX7osHPojupeMqvJW22i-293" target="GX7osHPojupeMqvJW22i-295" edge="1">
          <mxGeometry width="160" relative="1" as="geometry">
            <mxPoint x="442" y="733" as="sourcePoint" />
            <mxPoint x="490" y="94" as="targetPoint" />
            <Array as="points">
              <mxPoint x="620" y="159" />
            </Array>
          </mxGeometry>
        </mxCell>
        <mxCell id="rsyZAAjRXxu-Z-ed2r9X-9" value="" style="dashed=1;dashPattern=8 4;endArrow=blockThin;endFill=1;startArrow=oval;startFill=0;endSize=6;startSize=4;rounded=0;edgeStyle=elbowEdgeStyle;elbow=vertical;" edge="1" parent="GX7osHPojupeMqvJW22i-1" source="rsyZAAjRXxu-Z-ed2r9X-2" target="GX7osHPojupeMqvJW22i-212">
          <mxGeometry width="160" relative="1" as="geometry">
            <mxPoint x="695" y="-155" as="sourcePoint" />
            <mxPoint x="95" y="45" as="targetPoint" />
            <Array as="points">
              <mxPoint x="300" y="467" />
            </Array>
          </mxGeometry>
        </mxCell>
        <mxCell id="GX7osHPojupeMqvJW22i-72" value="" style="dashed=1;dashPattern=8 4;endArrow=blockThin;endFill=1;startArrow=oval;startFill=0;endSize=6;startSize=4;rounded=0;edgeStyle=elbowEdgeStyle;elbow=vertical;" parent="1" source="GX7osHPojupeMqvJW22i-94" target="GX7osHPojupeMqvJW22i-71" edge="1">
          <mxGeometry width="160" relative="1" as="geometry">
            <mxPoint x="675" y="-759" as="sourcePoint" />
            <mxPoint x="85" y="-549" as="targetPoint" />
            <Array as="points">
              <mxPoint x="390" y="-620" />
            </Array>
          </mxGeometry>
        </mxCell>
        <mxCell id="GX7osHPojupeMqvJW22i-75" value="AWS" style="swimlane;html=1;childLayout=stackLayout;resizeParent=1;resizeParentMax=0;horizontal=0;startSize=20;horizontalStack=0;" parent="1" vertex="1">
          <mxGeometry y="-827" width="950" height="220" as="geometry" />
        </mxCell>
        <mxCell id="GX7osHPojupeMqvJW22i-79" value="API Gateway" style="swimlane;html=1;startSize=20;horizontal=0;" parent="GX7osHPojupeMqvJW22i-75" vertex="1">
          <mxGeometry x="20" width="930" height="220" as="geometry" />
        </mxCell>
        <mxCell id="GX7osHPojupeMqvJW22i-80" value="" style="points=[[0.145,0.145,0],[0.5,0,0],[0.855,0.145,0],[1,0.5,0],[0.855,0.855,0],[0.5,1,0],[0.145,0.855,0],[0,0.5,0]];shape=mxgraph.bpmn.event;html=1;verticalLabelPosition=bottom;labelBackgroundColor=#ffffff;verticalAlign=top;align=center;perimeter=ellipsePerimeter;outlineConnect=0;aspect=fixed;outline=standard;symbol=message;" parent="GX7osHPojupeMqvJW22i-79" vertex="1">
          <mxGeometry x="40" y="25" width="50" height="50" as="geometry" />
        </mxCell>
        <mxCell id="GX7osHPojupeMqvJW22i-81" value="Receive webhook request" style="points=[[0.25,0,0],[0.5,0,0],[0.75,0,0],[1,0.25,0],[1,0.5,0],[1,0.75,0],[0.75,1,0],[0.5,1,0],[0.25,1,0],[0,0.75,0],[0,0.5,0],[0,0.25,0]];shape=mxgraph.bpmn.task;whiteSpace=wrap;rectStyle=rounded;size=10;taskMarker=abstract;" parent="GX7osHPojupeMqvJW22i-79" vertex="1">
          <mxGeometry x="350" y="10" width="120" height="80" as="geometry" />
        </mxCell>
        <mxCell id="GX7osHPojupeMqvJW22i-82" value="" style="edgeStyle=elbowEdgeStyle;fontSize=12;html=1;endArrow=blockThin;endFill=1;rounded=0;" parent="GX7osHPojupeMqvJW22i-79" source="GX7osHPojupeMqvJW22i-80" target="GX7osHPojupeMqvJW22i-85" edge="1">
          <mxGeometry width="160" relative="1" as="geometry">
            <mxPoint x="160" y="180" as="sourcePoint" />
            <mxPoint x="320" y="180" as="targetPoint" />
          </mxGeometry>
        </mxCell>
        <mxCell id="GX7osHPojupeMqvJW22i-83" value="Queue webhook request" style="points=[[0.25,0,0],[0.5,0,0],[0.75,0,0],[1,0.25,0],[1,0.5,0],[1,0.75,0],[0.75,1,0],[0.5,1,0],[0.25,1,0],[0,0.75,0],[0,0.5,0],[0,0.25,0]];shape=mxgraph.bpmn.task;whiteSpace=wrap;rectStyle=rounded;size=10;taskMarker=abstract;" parent="GX7osHPojupeMqvJW22i-79" vertex="1">
          <mxGeometry x="490" y="10" width="120" height="80" as="geometry" />
        </mxCell>
        <mxCell id="GX7osHPojupeMqvJW22i-85" value="" style="points=[[0.25,0.25,0],[0.5,0,0],[0.75,0.25,0],[1,0.5,0],[0.75,0.75,0],[0.5,1,0],[0.25,0.75,0],[0,0.5,0]];shape=mxgraph.bpmn.gateway2;html=1;verticalLabelPosition=bottom;labelBackgroundColor=#ffffff;verticalAlign=top;align=center;perimeter=rhombusPerimeter;outlineConnect=0;outline=none;symbol=none;gwType=exclusive;" parent="GX7osHPojupeMqvJW22i-79" vertex="1">
          <mxGeometry x="140" y="25" width="50" height="50" as="geometry" />
        </mxCell>
        <mxCell id="GX7osHPojupeMqvJW22i-86" value="open endpoint" style="edgeStyle=elbowEdgeStyle;fontSize=12;html=1;endArrow=blockThin;endFill=1;rounded=0;" parent="GX7osHPojupeMqvJW22i-79" source="GX7osHPojupeMqvJW22i-85" target="GX7osHPojupeMqvJW22i-89" edge="1">
          <mxGeometry width="160" relative="1" as="geometry">
            <mxPoint x="140" y="170" as="sourcePoint" />
            <mxPoint x="300" y="170" as="targetPoint" />
          </mxGeometry>
        </mxCell>
        <mxCell id="GX7osHPojupeMqvJW22i-88" value="protected endpoint" style="edgeStyle=elbowEdgeStyle;fontSize=12;html=1;endArrow=blockThin;endFill=1;rounded=0;" parent="GX7osHPojupeMqvJW22i-79" source="GX7osHPojupeMqvJW22i-85" target="GX7osHPojupeMqvJW22i-87" edge="1">
          <mxGeometry width="160" relative="1" as="geometry">
            <mxPoint x="140" y="170" as="sourcePoint" />
            <mxPoint x="300" y="170" as="targetPoint" />
          </mxGeometry>
        </mxCell>
        <mxCell id="GX7osHPojupeMqvJW22i-89" value="" style="points=[[0.25,0.25,0],[0.5,0,0],[0.75,0.25,0],[1,0.5,0],[0.75,0.75,0],[0.5,1,0],[0.25,0.75,0],[0,0.5,0]];shape=mxgraph.bpmn.gateway2;html=1;verticalLabelPosition=bottom;labelBackgroundColor=#ffffff;verticalAlign=top;align=center;perimeter=rhombusPerimeter;outlineConnect=0;outline=none;symbol=none;gwType=exclusive;" parent="GX7osHPojupeMqvJW22i-79" vertex="1">
          <mxGeometry x="285" y="25" width="50" height="50" as="geometry" />
        </mxCell>
        <mxCell id="GX7osHPojupeMqvJW22i-90" value="" style="edgeStyle=orthogonalEdgeStyle;fontSize=12;html=1;endArrow=blockThin;endFill=1;rounded=0;" parent="GX7osHPojupeMqvJW22i-79" source="GX7osHPojupeMqvJW22i-87" target="GX7osHPojupeMqvJW22i-89" edge="1">
          <mxGeometry width="160" relative="1" as="geometry">
            <mxPoint x="140" y="170" as="sourcePoint" />
            <mxPoint x="230.00000000000023" y="150" as="targetPoint" />
          </mxGeometry>
        </mxCell>
        <mxCell id="GX7osHPojupeMqvJW22i-92" value="" style="edgeStyle=elbowEdgeStyle;fontSize=12;html=1;endArrow=blockThin;endFill=1;rounded=0;" parent="GX7osHPojupeMqvJW22i-79" source="GX7osHPojupeMqvJW22i-89" target="GX7osHPojupeMqvJW22i-81" edge="1">
          <mxGeometry width="160" relative="1" as="geometry">
            <mxPoint x="190" y="170" as="sourcePoint" />
            <mxPoint x="490.0000000000002" y="50.00000000000023" as="targetPoint" />
          </mxGeometry>
        </mxCell>
        <mxCell id="GX7osHPojupeMqvJW22i-94" value="Webhook Handler" style="points=[[0.145,0.145,0],[0.5,0,0],[0.855,0.145,0],[1,0.5,0],[0.855,0.855,0],[0.5,1,0],[0.145,0.855,0],[0,0.5,0]];shape=mxgraph.bpmn.event;html=1;verticalLabelPosition=bottom;labelBackgroundColor=#ffffff;verticalAlign=top;align=center;perimeter=ellipsePerimeter;outlineConnect=0;aspect=fixed;outline=throwing;symbol=message;fontFamily=Helvetica;fontSize=12;fontColor=default;strokeColor=default;fillColor=default;" parent="GX7osHPojupeMqvJW22i-79" vertex="1">
          <mxGeometry x="640" y="25" width="50" height="50" as="geometry" />
        </mxCell>
        <mxCell id="GX7osHPojupeMqvJW22i-95" value="" style="edgeStyle=elbowEdgeStyle;fontSize=12;html=1;endArrow=blockThin;endFill=1;rounded=0;" parent="GX7osHPojupeMqvJW22i-79" source="GX7osHPojupeMqvJW22i-83" target="GX7osHPojupeMqvJW22i-94" edge="1">
          <mxGeometry width="160" relative="1" as="geometry">
            <mxPoint x="90" y="170" as="sourcePoint" />
            <mxPoint x="250" y="170" as="targetPoint" />
          </mxGeometry>
        </mxCell>
        <mxCell id="GX7osHPojupeMqvJW22i-96" value="Return 202 response" style="points=[[0.25,0,0],[0.5,0,0],[0.75,0,0],[1,0.25,0],[1,0.5,0],[1,0.75,0],[0.75,1,0],[0.5,1,0],[0.25,1,0],[0,0.75,0],[0,0.5,0],[0,0.25,0]];shape=mxgraph.bpmn.task;whiteSpace=wrap;rectStyle=rounded;size=10;taskMarker=abstract;" parent="GX7osHPojupeMqvJW22i-79" vertex="1">
          <mxGeometry x="720" y="10" width="120" height="80" as="geometry" />
        </mxCell>
        <mxCell id="GX7osHPojupeMqvJW22i-97" value="" style="edgeStyle=elbowEdgeStyle;fontSize=12;html=1;endArrow=blockThin;endFill=1;rounded=0;" parent="GX7osHPojupeMqvJW22i-79" source="GX7osHPojupeMqvJW22i-94" target="GX7osHPojupeMqvJW22i-96" edge="1">
          <mxGeometry width="160" relative="1" as="geometry">
            <mxPoint x="90" y="170" as="sourcePoint" />
            <mxPoint x="250" y="170" as="targetPoint" />
          </mxGeometry>
        </mxCell>
        <mxCell id="GX7osHPojupeMqvJW22i-98" value="" style="points=[[0.145,0.145,0],[0.5,0,0],[0.855,0.145,0],[1,0.5,0],[0.855,0.855,0],[0.5,1,0],[0.145,0.855,0],[0,0.5,0]];shape=mxgraph.bpmn.event;html=1;verticalLabelPosition=bottom;labelBackgroundColor=#ffffff;verticalAlign=top;align=center;perimeter=ellipsePerimeter;outlineConnect=0;aspect=fixed;outline=end;symbol=terminate2;" parent="GX7osHPojupeMqvJW22i-79" vertex="1">
          <mxGeometry x="860" y="25" width="50" height="50" as="geometry" />
        </mxCell>
        <mxCell id="GX7osHPojupeMqvJW22i-99" value="" style="edgeStyle=elbowEdgeStyle;fontSize=12;html=1;endArrow=blockThin;endFill=1;rounded=0;" parent="GX7osHPojupeMqvJW22i-79" source="GX7osHPojupeMqvJW22i-96" target="GX7osHPojupeMqvJW22i-98" edge="1">
          <mxGeometry width="160" relative="1" as="geometry">
            <mxPoint x="90" y="170" as="sourcePoint" />
            <mxPoint x="250" y="170" as="targetPoint" />
          </mxGeometry>
        </mxCell>
        <mxCell id="GX7osHPojupeMqvJW22i-107" value="" style="edgeStyle=elbowEdgeStyle;fontSize=12;html=1;endArrow=blockThin;endFill=1;rounded=0;" parent="GX7osHPojupeMqvJW22i-79" source="GX7osHPojupeMqvJW22i-81" target="GX7osHPojupeMqvJW22i-83" edge="1">
          <mxGeometry width="160" relative="1" as="geometry">
            <mxPoint x="190" y="170" as="sourcePoint" />
            <mxPoint x="490.0000000000002" y="50.00000000000023" as="targetPoint" />
          </mxGeometry>
        </mxCell>
        <mxCell id="GX7osHPojupeMqvJW22i-146" value="" style="edgeStyle=elbowEdgeStyle;fontSize=12;html=1;endArrow=blockThin;endFill=1;rounded=0;elbow=vertical;" parent="GX7osHPojupeMqvJW22i-79" source="GX7osHPojupeMqvJW22i-144" target="GX7osHPojupeMqvJW22i-147" edge="1">
          <mxGeometry width="160" relative="1" as="geometry">
            <mxPoint x="140" y="170" as="sourcePoint" />
            <mxPoint x="410" y="190" as="targetPoint" />
          </mxGeometry>
        </mxCell>
        <mxCell id="GX7osHPojupeMqvJW22i-147" value="Return 403 response" style="points=[[0.25,0,0],[0.5,0,0],[0.75,0,0],[1,0.25,0],[1,0.5,0],[1,0.75,0],[0.75,1,0],[0.5,1,0],[0.25,1,0],[0,0.75,0],[0,0.5,0],[0,0.25,0]];shape=mxgraph.bpmn.task;whiteSpace=wrap;rectStyle=rounded;size=10;taskMarker=abstract;" parent="GX7osHPojupeMqvJW22i-79" vertex="1">
          <mxGeometry x="350" y="110" width="120" height="80" as="geometry" />
        </mxCell>
        <mxCell id="GX7osHPojupeMqvJW22i-148" value="" style="points=[[0.145,0.145,0],[0.5,0,0],[0.855,0.145,0],[1,0.5,0],[0.855,0.855,0],[0.5,1,0],[0.145,0.855,0],[0,0.5,0]];shape=mxgraph.bpmn.event;html=1;verticalLabelPosition=bottom;labelBackgroundColor=#ffffff;verticalAlign=top;align=center;perimeter=ellipsePerimeter;outlineConnect=0;aspect=fixed;outline=end;symbol=error;fontFamily=Helvetica;fontSize=12;fontColor=default;strokeColor=default;fillColor=default;" parent="GX7osHPojupeMqvJW22i-79" vertex="1">
          <mxGeometry x="495" y="125" width="50" height="50" as="geometry" />
        </mxCell>
        <mxCell id="GX7osHPojupeMqvJW22i-149" value="" style="edgeStyle=elbowEdgeStyle;fontSize=12;html=1;endArrow=blockThin;endFill=1;rounded=0;" parent="GX7osHPojupeMqvJW22i-79" source="GX7osHPojupeMqvJW22i-147" target="GX7osHPojupeMqvJW22i-148" edge="1">
          <mxGeometry width="160" relative="1" as="geometry">
            <mxPoint x="-190" y="1097" as="sourcePoint" />
            <mxPoint x="-30" y="1097" as="targetPoint" />
          </mxGeometry>
        </mxCell>
        <mxCell id="JMrL7uiw3fRfpIFlFQm5-45" value="" style="group" parent="GX7osHPojupeMqvJW22i-79" vertex="1" connectable="0">
          <mxGeometry x="105" y="110" width="130" height="80" as="geometry" />
        </mxCell>
        <mxCell id="GX7osHPojupeMqvJW22i-87" value="Authorize request" style="points=[[0.25,0,0],[0.5,0,0],[0.75,0,0],[1,0.25,0],[1,0.5,0],[1,0.75,0],[0.75,1,0],[0.5,1,0],[0.25,1,0],[0,0.75,0],[0,0.5,0],[0,0.25,0]];shape=mxgraph.bpmn.task;whiteSpace=wrap;rectStyle=rounded;size=10;taskMarker=abstract;" parent="JMrL7uiw3fRfpIFlFQm5-45" vertex="1">
          <mxGeometry width="120" height="80" as="geometry" />
        </mxCell>
        <mxCell id="GX7osHPojupeMqvJW22i-144" value="" style="points=[[0.145,0.145,0],[0.5,0,0],[0.855,0.145,0],[1,0.5,0],[0.855,0.855,0],[0.5,1,0],[0.145,0.855,0],[0,0.5,0]];shape=mxgraph.bpmn.event;html=1;verticalLabelPosition=bottom;labelBackgroundColor=#ffffff;verticalAlign=top;align=center;perimeter=ellipsePerimeter;outlineConnect=0;aspect=fixed;outline=boundInt;symbol=error;" parent="JMrL7uiw3fRfpIFlFQm5-45" vertex="1">
          <mxGeometry x="110" y="53" width="20" height="20" as="geometry" />
        </mxCell>
      </root>
    </mxGraphModel>
  </diagram>
</mxfile>
